<mxfile host="app.diagrams.net" modified="2022-03-02T06:29:11.726Z" agent="5.0 (Macintosh; Intel Mac OS X 10_15_7) AppleWebKit/605.1.15 (KHTML, like Gecko) Version/15.3 Safari/605.1.15" etag="VpwD95t2Mvpd-mJDDZkT" version="16.6.4" type="github">
  <diagram id="as5tXdrJLmseKK5V4AqZ" name="Page-1">
    <mxGraphModel dx="1123" dy="683" grid="1" gridSize="10" guides="1" tooltips="1" connect="1" arrows="1" fold="1" page="1" pageScale="1" pageWidth="850" pageHeight="1100" math="0" shadow="0">
      <root>
        <mxCell id="0" />
        <mxCell id="u0ZUq6SkKT7h-yAJdBjN-28" value="Untitled Layer" parent="0" />
        <mxCell id="u0ZUq6SkKT7h-yAJdBjN-29" value="" style="rounded=1;whiteSpace=wrap;html=1;fillColor=#d5e8d4;strokeColor=#82b366;" vertex="1" parent="u0ZUq6SkKT7h-yAJdBjN-28">
          <mxGeometry x="200" y="280" width="270" height="270" as="geometry" />
        </mxCell>
        <mxCell id="u0ZUq6SkKT7h-yAJdBjN-30" value="" style="rounded=1;whiteSpace=wrap;html=1;fillColor=#ffe6cc;strokeColor=#d79b00;" vertex="1" parent="u0ZUq6SkKT7h-yAJdBjN-28">
          <mxGeometry x="490" y="280" width="160" height="270" as="geometry" />
        </mxCell>
        <mxCell id="u0ZUq6SkKT7h-yAJdBjN-23" value="Untitled Layer" parent="0" />
        <mxCell id="u0ZUq6SkKT7h-yAJdBjN-24" value="" style="ellipse;whiteSpace=wrap;html=1;fillColor=#e1d5e7;strokeColor=#9673a6;" vertex="1" parent="u0ZUq6SkKT7h-yAJdBjN-23">
          <mxGeometry x="210" y="410" width="120" height="110" as="geometry" />
        </mxCell>
        <mxCell id="u0ZUq6SkKT7h-yAJdBjN-25" value="" style="ellipse;whiteSpace=wrap;html=1;fillColor=#e1d5e7;strokeColor=#9673a6;" vertex="1" parent="u0ZUq6SkKT7h-yAJdBjN-23">
          <mxGeometry x="340" y="410" width="120" height="110" as="geometry" />
        </mxCell>
        <mxCell id="1" parent="0" />
        <mxCell id="u0ZUq6SkKT7h-yAJdBjN-1" value="" style="shape=image;verticalLabelPosition=bottom;labelBackgroundColor=default;verticalAlign=top;aspect=fixed;imageAspect=0;image=data:image/png,iVBORw0KGgoAAAANSUhEUgAAAKAAAAC+CAYAAACyEwTGAAAAAXNSR0IArs4c6QAAAHhlWElmTU0AKgAAAAgABAEaAAUAAAABAAAAPgEbAAUAAAABAAAARgEoAAMAAAABAAIAAIdpAAQAAAABAAAATgAAAAAAAACQAAAAAQAAAJAAAAABAAOgAQADAAAAAQABAACgAgAEAAAAAQAAAKCgAwAEAAAAAQAAAL4AAAAAqrGIywAAAAlwSFlzAAAWJQAAFiUBSVIk8AAAJWZJREFUeAHtXQeYHMWVfjOzQbsKK61yzgGBIiAhIYLAJGGCAckiGN8H5zMYG9vgc8CG0xF8h88R2xiwueMAS2gR5uCEAOFDgCSU0QrlLJRz3jjp3l/d1VMzO7Gnd3Z2u+qTtqur3ntV9eqfyvWaSDutgSbUgMfptKf+e0WZNxi6iUJ0r8fjGc/yi51OQ8trbhrwUJhCJ73k/SAQpud27DmxcNUL3/SjFI4C8KuPvzbK46X3PB5vtzCkh8Vf+LTTGiBukBgSAhPLg0M8E1+fNi3oGACnPznrAg95P2TxbbWutQaSacDj9VE4FFjfKtD1Al8ywnTj7nhq9jUh8nzIDWpJujyazsUa4FaQe8kuAW/1lqwBOPWpiqs8YXqHm9ICF6tUFz1TDXB3zG5gVl3w1Cdm3evzeF9gQd5M09f0WgPcDIZtA3Da47Pv8nrpFa1GrYFsNGCr5br9yZk/9Po8L2eTsObVGoAGMgbg9CdnP0Leoqd5Pm279dSq1xqQGsgIRNOfmv1zXlH8iWTWT62BbDWQNgAZfH/y+grvCwXEAna26Wp+rQGhgbQAyN3ui0x9j9aZ1oDTGkgJwDuemDM4QMHbPF5PtdOJa3nNTAMh3m4IebxhX7iXhzyX+4qKxwbr67kQ9rdcUwKwmalIZzeHGpj6eMUErzc0l7dgy+2CMONZcA7Lp5PKcw28/ti0Ja0Lq/qFQ+EFdrMatwV8Zt7W4uN1Z0sKawqK/QU1cWkaJljVMCiTkATsDYMxEijl/zZHBDbZGuaDs8CBNsUpmokrWYlvJK+Z8XRSL2hTEggEavytazvXvTRjcm1sjqb+oqKbrz68g8MzPgsQBa6KigrfjsL+Pw+FPNfzQa2+vNbXmoXyVi875WhVOMSvRqhoeY2oyDggZHkNj3kEB1KEmLAYM8g4IULEKcHGu6A3qEUAWDgxk9MK4uwY58pERvjkGROoBZPvIXAazBAkZIFSBKFQpuOtclKFIJ5/5UKoQSv+GiIEj/kOOvaG+I9MXy07SGPfI+VBpPhnZhFKBof1YI8RgL/Cx3+EX03PYjAipa4FPfgsDwhNOcJjROBvmMd6vE0myiDew+EABwOrB0Kh8JKQr+pHrz9yzxGwSXf7E7Mf9hYV/TLox5gwfSf1RL+uWF9eW1Cz3Of1DQyGgoYEpcCRnBuFkDAAoSCzSmbUnSlAPGKVjgpSnfXKHstvEoA3itp6N0JB3yDeCjBpIEvQiT9W0jJfgkpJON67pBWiJK0lTnAIuSI/Mh7JKv4oXkEtCKLyL/hFnCWc4035piyZmhTdMA1TuEVvSRCVJfilSCUf8CJYygM41HfEA5jhYOiwxxscOeundxwSYfxn6vcrSnyduEOQmZIRKZ5iDPjMvKXt6gtqlgJ8IQm+FIw62p0aADg9Pl+XMHnfUDXw+m+m1TD4Dqth6fgFAGvqiqZ6fQWDNfjSUZmmCXMjVVBYcjFfv+gTpY0wZdb/MrMAIDfQ3wkrY6AoofpFayCOBkLBAPlCNC5OVEZBxiHSMI1SRgkZCdDE7tSA6IoDoS7Zlt5YB7SmItmK0/xu0kDIXEDIpswGALORoHm1BrLQgAZgFsrTrNlrQAMwex1qCVloQAMwC+Vp1uw1oAGYvQ61hCw0oAGYhfI0a/Ya0ADMXodaQhYa0ADMQnmaNXsNaHMaCXTIx45oRL/O1L28De0/fpYqdxyiAp/+vSZQl+1gDcA4qgsEQ/QPV46g8wd3s2J3Hz5Nv5+7gur8kXODVqT22NaA/knHqA57nF+bfF4U+EDSp0s7+tn0SdS3c7tMj7zFpKBfVQ1oACraQLc7/bLhNG5odyU04i0rLaYHb7yQunYo1SCMqCUrnwagqT6v10P3Xz+Wxg/tkVShhQVeemTaxTRmQFcCYPU5jqTqShmpx4CsIi8fM//ejedTL+5e03EA6z3XjKL6QJDWfXEEp9S1s6kBV7eAGO+1KiqgH9wyLm3wqXq+j1vMy0b0JUxatLOnAVe3gGWti+lHt46nVsWF9rTHXFMvGcbdcJg+Wrtbt4Q2tOjKFjDIY7fOZaWi5csGfFLft11yDt0ycSjV+4MahFIpaT5d1wLi1uCAbmX0nRvOT1NF6ZFdMbof+Xihes6iTcxg3nlMj9XVVK5qATFpOLdPJ7p/yphGqfTLRvShe6/myYlerE5bv64BICYcE4b1oHuuHtGoW2qjB3alH9w2vlHTSLt2mwGhKwCIsdn1Fw6k2y8dnpMqGdqrI025YJBYJ8xJgs04EVcA8JzeHWnyyOg71I1dZ18a25+T0GPBVHp2BQC7lcPGUm6djxerS7JY3sltbpsuNVcAcNehUznfu91x4ARV18GolHbJNOCKZZi9R8/SL95YRleM6kNlrVtZ+gjyDkYdjw9jXW19wDDHpkT4mdbP5ijgsJRjOA/V1PuVd6I65t1+8IQ4Q4hWEJMf7RJrwBUAxF7tkVM19MqC9QwsEzoc1rtTW7EPbEBEBQpHKsDBF1FgDtHnYw+cSsqvIRa6+8hpsRCNaFDh06TapdaAKwAINQAPRQX8bUYGD2bFD/A+7tBe5cKYZGo1pabYvOcY/WHuSgafbvVSaytC4RoARorMn/X0+WhIzw4iCCdhnHD9u7UX3a1u+TLTpismIbEqAeaUHjY22ta70/JsZaIZMrkSgDg+hUmFdk2vAVcCsOnVrnMgNeBSAIbJxx871q7pNeDKSQimxB+u2UVXjelPQXySwAG3bPM+saTjgChXiXAlAAv53N67q3bSwvV7RWWLz0YoswjxJWQ+tCodfOqCshXDHl5rFgt/p6vrjDVFK1Jy62cyDbgSgFAIdilq/QEa1b8LlZVid0RtCTFNxntDG7QCXxKs/LL/xFnauOeIbv2gVBvOtQCErm66aDBNGt7LhtqiWV58v5JWbTsoQB0do99SacC1I3H0nOVtIvvCqRSVLL5j25KoLjoZrY6L1oBrAYiuFEf0nXB62Gdfi64FoH2VaU4nNaAB6KQ2tayMNeBqAOJ+sBOuVt8Htq3GvJkFY50NB0ThcrVLMXf5NirgHZE2JUXWJAKTE+GATazGmK/qw/qsGUfuPXqGlvMidC7yjLxgHxsnbrCM1BJckwMQFqZatyqiwd3LaEDX9kLBSzbtp8Onqhv9UOfp6nr6y/w1FGTwt2YbMdIJ0Mm1Pg6EDSz5MUcZh8Xr6tqAuH5ZIA+qSgGN9Bw7qDuNHtCNjp6upiUb99DBE1XNfv0xovVGUloqsd06tKZ7rjyXSpULPOf17cRH6JdTwKEuMlkeShh4d7FByoHd2ycjaxCHc4QfrN5B767c0SDO6QBsF04Y1pu+MWWsJfrKMQPoFxWLaM+RM1ZYc/Q02RgQLUg/tjp6/7WjosAHJbYq8lHX9rm5yQbrWMP7dORWuDCj/yXFBXTjRUPi99EOI8EfCNHk0f2jpCK/j915OR+sde5Ud1QCOXppEgBivHde70709cnnxh3LYHRTwIYg4QBUjHti/zs1gUAaoluFJ0PHWSOPQ2Mx5AHyov4r+cEh2liHOyoPT53IxtS78qEKu6WIlZrb95x3wVDwhYO60Y3jBiYtKRRexCD8ykVDqVNZiVEzFoeHjp+tpTc+3SyuPkL1Ie6mIBtwilw8ysGxqzTqHeCQ+MGPDywon7wOgNbsgsE9CNZXjTKgHIbbvv84rf3icMIfCQ5WPHzbBHrxvc9o4brdlkzJn+/PnAIQY5krR/aly89Ltf+Kqz0e7qLb86+7U1wddufL5l8c6U4fs10+jB/HD+lOqAy1puqDQVq8YS/veKgHDeKKa7TANjzBGtC9AwMrGqknztTQrsMnRX5vnXQOTRzeO24e0PI/9Pz7cePUwHuvHUvFhQX0/srtzcouTc4AiBbgpnGD6IJBXVW9JfWnOjOK3g/gevCGkdSzY5u4siYN70n/MnOxaBmKC31UwpUkoQBQlPJYTrZOcQWkCESrxXecIo7PctXU+cUMHss7T9x9GQNDJYiQvr10C73NrXg57yUncplYWLjrypG8v11CFZ9sEC1sIpn5FJ4TAKILuuuyc2ioeRPNSQVgjNi+tCihSLRAWKPrw3eAv3NDZBYZYeC21iYCwffbb34pIgo+Djx2uoaervhUAK8oAfhA2rsT26RmGTGNI6KiHOJT0UiGKeMHUxvWxwvvrDJ6BBmRp89GByAqAMssuASevpNtVPocySixwH35iN6iVUpE99aSrXSyqtYABIhisqB2ofCPZiv5Y3ksG+8aZqd2JdS3SxkdOlmVKLmMwgH06tq6tHkuZbvVGJY8+/ZynsSlzdYkhI0KQHQf918zktqzLebMnMfxwTRaymRu875jdIA/yQVACUqFHu+xAOzC65fx2lOkAdrkqSXLSaK4zJrpC4b0oMfumkwzXvkwkcC8CG+0ZZg2PLP79pTRNsBn6CWdraZ4rU9eaDVPMtGPTRHPuHuymJxgxykfXaMAEB/1e+C6UbbBl66iWsHUhnZJNdCPtzd/c/+11DOjIVBSkY5GOg5ArG1NnzRE7GY4mtMWKgwdq5+Xi1K5bFowjAcf//oVvFLQ1jFbOKnym2684wDEskbvBEsi6WbKbXTBYPLuESCtYbNv2TgYZvr2TeMdOwWeTV5UXscBiCWXrA8RsMblLoGaWTf7M5uCxNcUjp5hgT+fnOMArOZF2EUb92U1C4SK8D225uzyMff/OX913u2SOA5AzEwXbzpALy/YaBlsbM5AspN36MAyZmlHQCPwvLdiG23gDyums7rQCMknFOk4AJESus+dbJf5+flrsx67JMx5nkek1QKmRWQUNNU6ZjJ1LKjcSS99UIlNmrxzjQJAlBKtwLEztfSn9z6nU1Xpr+I3mYZ4HoCpgPgPPxaT+T8qPvYpwADCLB0OT6QFCiaqrvXbSq3i4/X00vzKhPvRtoQ6yNSoOyFQLo69P/NOJX3zmhHUhT8QmK7DENDJtdNAipkmLJy24x0b/HAADLWrElhjIEoHb4/y+IcfJE165/PQJDVOs4QfzSsffM4ntreIhehI7mUO8+PZqABEEQFCHMP68wfr+ADqcOqV5hINDhAEQqnXx4w0klQiR+HEyjw+Oo89WnHyxKwNYXyc27y2JcXis6t2qgSTLnVmifLuOHCStu0/IS47JclZI0HPKMUzby6j1WwupFVhIZcwX+HHB4/tKN0Oj5+tEDz33hpxKmYYGwdP5aAytWLj0nNto6XayhU+qn/nuCQ7Dp4iHGk/U1NPv/qfFVGfX0BXin3qJ792qWj54gpIEgj+bz7zLn+QRtmR4Yyj5cYRLBhDP8vp4lhWPLf7CL5fkhocyUAcKxc/iF/NWUKb9xzVp2FilYMtutcWbRanoccO6BIbHfWOiQxuxiVze/jTCOguZ7PMudzCiWMEXJ+iTlFr7DnLYyekCyfO5Sn1jcpvxecD7TokgTsl6nk/pC1Bdba2np6ctZCHHm2sMBHHjIg7Im7+cQ8hMhw/FxgSoAfh897xCZRQ/MhnvPwx662KW33+USSRq7A1qde+9rPIdsXizVTFwLiED4smcujKjvGp4b98sJa6tCtV1I8aJnE1cdO+4+KsHyoI9vmEY6VH9G5WmgBjopQaNxxj4FNVx6xEjLzxEX0UkB2GGu+u2EqlDGR8bzhSUINm3a7D4pROdV29JSOe5zAf/fq31xbRibM1qXuOeAKaKKxJAIhtofmVu/j8XR3dcOGAuEWXC9E7uQvdzv+FYzyhlcMBezzRskXAFldMXgRKsBmZwY/CAJ/M3D6+3P77t1dY0bJ8KBtaTAAz2XDkC17yenLmJ6KlRM/RHHQiy94kAETiqJQlm/cLpd08fpDMj/VUN9+t6jJbMuvdorbvkV2iHQlOWtqX3bYAHWdGTBxkA84FPs5LWvEcFpd/++ZSocd48fke1mQAhGLQgq3cfkgs1dzNM2TpUAk7+FedC3eGhwIL1+2hcXyAU4IgnXRh2u3F99dEjf/S4bNDgz3cNTsPiqupcjwLOYv4FtyL76+OaU/tpNB0PE0KQBQbXcbmfSfoj/MqaWS/zmLh97Nth+gE/+JlN9xY6hFrdYz2Cp7EzPxoQ3R6Sj+GhkiCUzRKZlwxDyXQUudi2w0L0b9/azmN4qsAuPS0dudh2mDOdGXeGktPjSm3yQGIwgFoB09W08HVu6zxS2ODD+nCBMidl5/LPqOvw4TAnBsgOi23nZeA/jgX4zcnBwbxk97A94Px38gtr29i0tLMXV4AsCl0iJb3ytH9eA0vOxUM46+xD+xeTlv5AjlkapeZBpr/Tyiz8kZTK91sdERmbwCxQ6IyS7gFULsbgC2gApt7ETQAm3sNNvP8awA6UIF67Gdfia4FIBZ6T/NBASfcXjYS2cxvEDihBlsyspsC2koyP5gwaaj4ZCOt3Gp84Ug9siTmsuZah1zyUNfaZBjWQ2AH5tiZxjcnnB9acz4XrgQgAIRFZJwTxIkasfdqTmMj4DJ88l0CULzLKa8Z2YbPE1bx6RbtMteAKwFYVlrMlrLGECxnwUmQJVMfWkXQyaekxTv2hGd+tJ7W7Dgkg/UzTQ24EoD92WZKB7aj55TD2bvBPcqpkve1tctMA+6chKTT5GWmxxxsxGWYoWZC7k4ANpPKcUM2NQDdUMt5XEZXAlA97OpU3ciJsVPy3CLHlQDEyRXcWHPS4WyePgyTuUZdMwtGCxXAB0T43xleNnn4xQXinrC1rGI2YZH5ScQHtVqtpmAw4yCTL7yfrasTT3mZHZ9WsHO2MPPqa/4crgAgwNOe1/4uH9mHunUoFV/IFKAycVTA+2gFUd9awJ2VMMHAeuxlIByJV4/FSwjI1g/4hHHyF9+vTHiPQ/LoZw4vpjelsrHu9+3rE5kUdz5nMIv7/ZvH009eWiAuzjufQsuR6IoxYJ/O/D2OHLtyNgOS7BshOc5O3ibnCgAe5QMDuXb7+a6v3+GJTq7LkIv0XAHAtbuO5NREHGbYL7y32rB0kItabMZpuAKAmJH+6s0VbOLCmS8XJavvA8fO0r/+daH4mnkyOh1naMAVAMQMFVbmf/f2Sjp2qvG6Y3wB89dsFg2f/JJLMhpoyTXgCgBKFfjZiNEv/raMNu2NGAuScdk+N+w+So/PWkTV9fYsmWabfnPldxUAsUYHawgvvLuGtvGFcqfcVrbs8OzcVcJ0Ruy6oVNptFQ5rgKgrERYXXhu3mpavvmADLL9XLR+D/3urWV6G86mBl0JQKmrlz9cR5+s3SNfM35+9PkX9Mr/rWPwoW3Vzo4GXLEVl0gxsGz6P0u3Uq0/QFeP7Z+ILG74a/xV8oUMXshQLzTFJdaBCTXgagBCK2i83l6+jW1I19EtE4el7EqxrwyzbJ/tOEiFvLwTfWQhoZ51RAINuLoLljqBxdZF6/fSqwvWy6CEz2ff+YzW7DrUIixTJSxkDiNc3wJKXWMct2LrfrZqX0f3Xj2qwT4ujlj9x5yltI+/qq4tIUitZf/ULaCiQ1gi3cJLKv/Ba4W7FAutOCqIWfMBPmalF5gVhTng1S1gjBIxJsThhV8yCIf1LKey1q2ocuch8Z1d3fLFKMuBVw3ABEqE9VEsVmOGi+5Zgy+BorIM1gBMokC0htjZ0DPdJErKIsrj8ZIeA2ahQM1qXwMAH383bbkGoH0dak6bGvD6YNI4uNIbaHuVBqBNJWo2exrAeDocCMwbFtg0/q8zppzWALSnR81lQwO+Av50bDD0biDo+cp6Gl4w/clZc/UkxIYiNUvmGkDLF/LXP//aY9PvA/dXn5i9yOPxXawBmLkuNUeGGvDxR7P99cE/Vzw6/b47Z7zaLlhQ+D6PAy8KBQN6FpyhLjW5DQ0w+GZUPDr1n/7p+ecLA96CjbywKsAHUXoMaEOhmiU9DWC26wmHf8bg+9fpT7/V4/SRsvVenw9fhbQE6C7YUoX2OKyBUMgfeIDHfM/d+fSrvQL1tdt47a84DPs8itMAVJShvc5pgLcw75792PS/Tn28YkSgnubzunOx2vLJlDQApSb00ykNBAPh8LQ5j07/2/TH54z3+sJLQ2j1Ir1uVDoagFHq0C/ZaIAxVsXDvivm/Hj6J7c/VXFVOBT4WyjMG+pJnARgAnwm4UwShSRVgaofbEnfmVkZo4rvIqjv8WQnlaekBzqpDvgln3xykHDx3tUw1Q+GqHcz/zIdkaBKEFuAGH6QWuQmLd6FPOwimMqQNPLJJMIlelfDVb/ky/wZ5qU9tmGnOl/hjTN/fMuWO37++i1hj/eN6IpUCSN+A4BBug5BIat6JIGlRg4IyEBxbyIqBi9BJYS9xps54IwxRmqkE5EXEWz+HhRRxLxRU3WP5DOIcGLFEi+iVGaT1nyoMfDz0qiVtOqJFQPaUCiWmwPNhD2KbiDHhz+mC8RLI0aUVYuWPDCbRBym3jVW0zKLJZMST8El5XuCQkoUHb/ELbUZiLwbXIbekaXo9BEQ5B0Nbto8oag7DLMfuWXLtCde/UYoFHo2QSoij+ofUeOlpf4lauBx9SUdf0IGAzpRAGJ5xudhjL8pxccym9xx+RqINAKOWeFqRstjRKhxMVH86kke3ZDBDCmM/vnEpSuUoQ3KyhFW3iVRJCB1liK0khvyJD6tMOGBtHIBTllWYNKgbZiSh2nr6WytKuOrT1Tc7yvwPYsF5nSdAGB1XeFapMSoFnyRbBvv4q/SD/LFMHZGnPCBQZleG/GIMZy4thghj5i7teLZI+UrdIgOcXhUkPVuhIKtQXxUAH+Wy0xH+MyWLBSuiuGLKbXMD7KG/0URobIblAJickhBvj8i2g/UntCLysthqrPKYwRGymPy8CMiX7zIZMnKkqJwKyXhkZwhiwceM8rKhfHeit+rRVjIFCyBGg5HdCMaSpHemQL+0tmPmOFVKYgHCI9kAj7wmX0e9RG5kilKiSJn8iXyFHqNvJq+WGYEmwJi5cSSIh59aUxlmIKzeCgJs5fPNluysDcpQa9QWfHpemJ5ASAh2yy7ER9J19JJOgk0EB7NJKWq43yEIQ+iqMgL3pVyx6afIglRilgaiPN4fcRgaxudo8zf4jX6mUvRHFoDNjWgAWhTcZrNGQ1oADqjRy3FpgY0ADNUXIPxUIb8mjxaA3ISEh3qsjfYDFRn8QJkCOPBNr4fIme9sI4g5i5y1gk26IrXY3GpHX7E1wdC1uKL5BVkHIl46YQ8KYMDA2xAE9E+vhKq0kn6lvh0NQAxW8RX0//x6hF0Tp+ODeoXX1OHRYSzdX4qKSqg+6eMpb5dy6InkoyYrfuO05/ZKHl1XYC/Q9yKvn3D+dS1QxuLDrNUAGvllgP08t8/p7pAgLq2b03fuWkcdS4rtdL1B4LiC+7LN++nlWwmBCZ/Yd+6JTtXAxBmNv75lnHUSQGBrOydB08K8NWxxfsCH9PdehF15G9/CAc0mW7V1gP0yodrhXXUtiXF9MPbJlDbUnPdzKTD453lW/n/NrGu2bO8Lf1g6gQqLbaWoIU0fPh6QPcO4v9XLh5Kz/7vKtq4+4hMqkU+XQlAtHwd27ai+6aMoXJ+xrrKHYfpv+av4W7QQ93L29CDN55PJTFgAc/STfvoVTZyie4SX0z/7s3jYkWJ9/dWbqf/XbZVWFcY2a8rfYtbyFSuuLBAyHtq5kLadfgkwaprS3SuBCAqMsgo/Avb+bOcWL01wo9y14cKR1AdrOu/tVKuWRtjPo7wB4P8LbgaAVL0tSfO1tFTsxaLeHXcV8fGL0EH0x74f/AEf8bh1U+sZEU/zenAoduedulwwleW4JCHh7lFfeiF+Wzb2tysFTEt548rAYgW6yRvY0qgiJ0CayuRI83GBnTHQcf1LU/yCqwIsKpb9DBoZHyDRNDKSUoMTrCteJgtbFmDQ8RzmIk/2nP0NC3fsp8e5LHh6IFdBXdpq0Ia0a8LVbJBzJbomtUIF/UO0Bj/Vb8MS/2MX4kSAoiNkWHAL5qNkQlwqg7dtfjP6LX8sUTMgCA1XvXjK5wwioTxopqjXk3wrTu1bI3pbxYtIFqO87lFGNG3E/Uob01FBYmyrVZbtNow4Vix9SD97dMt4rDA41+7JDMrpxDN4PHzEgu60fVfHKGFbCG/tj7IXWV0Wtm+oXUWCDRBjhk4fnwxmM82mbzgT1STeZE5ZALLJN+9bjR1aR9ZrrCTuVXbDtHrizeTj5sg9JAwywsD45m6VjzBbVtaToPZduD14wfTL+cso/3HT2cqJiN6gK+lOod/u86qCYP2+68blTX4/l65S9h/dtq6KbrLh3gZp2O7UrG84mzp3SEtb1tA7BJcPaavWLCVVVHPC7UL1++jrftPyCBjPGi+8Ulcmn7pOdRJrtdx+FtLt9FHa3eLr5zz6M7ic8qDVvT7PGn46csLnBLpKjl5C0BU7BUjeluVgV2GP8xdzbPNaj6LhtGQASZ0TxJWOAgKkEo36+ONtHLbQcLJSYtIRjr4LGtTzDspnWnTnqMOSnWHqLztgrt3aG1MGc16+HDNbjrBX6HETFGuqcU+5SwU3/L407xKBt+BnBkV790p67OZ7kBcTCnzFoCxn7s/WV0nli9i8h/1iiUOLNg+914l7eCttFzuo5YUsemxqNzol3Q0kLddcDqZj6UB4J7lwwP+gGFYvFH73djE9bstDeRtC2irNMyEo1VoCbVrHhpocQBsHmrXuZQa0ACUmtDPnGsAk0YNwBypHfvXWFrCaWftDA2wfYW9Whs5QAPWKtvwHt7DfKi1LfbytOO1XC/5wvT7FjULTrdeYS6sls/52dkLTjcNSYc1ya68pvkDBh9av3SWasR5QGUiVcN5FROrdJhlwnn8RNcbDoX2eQLB/3RlC+jlX99KPkrf2A4tX7+u7elnt0/iAwzSQEhiFIEe90JumjDEOvkC6j1HTjV2VnMoX5iEOhUM1E2cNeOOo65sAXGI4KO1e+iSc3s3+C6wUzWBvexzencSx+9x1wMO65Tn9e1C1bV+JZnIDjUOn141ZgB142sA0p3k09TrvzgsX5v1E90u2x/a6wv4L5s94+7dKIwrAYiCo1t7e9k2um3SULw66tCSTRjWk75+1aioNUl0+XddOSLttLCm+fTsxeLCE7qt5u1wDC60O1TuOfe1B+48K8viWgBCAR+v2y0q98aLBjW4oSYVlOkTLd/Ec3rR3V9KH2jx0jh0oor++4M1dOxMbcotyHj8+RQGa/mhgH99UaD+ilceuNsCH/LoagDiUOoKHguu2n6QLmHQXHxur8jVywxrEBeI0EbdevEwumps/wy5I+R7+S7yvBXbaDXnCad70PAlHjVG+PLZFwwEPpsd3HQhzZjR4GZV3gIQR91V17mshIJfhMSJZjXcCT+6ur+v2UXzV+80zw2yVPSjpoNPjtREqIzjF4PKMICGbvLtZVvojcWbJKvBaRCJMHkRyiKQskDJfhz5ZyOPPF60KJqtB9+GCwb8i0JBz3XxwIeC5S0A9x07K04Z48gV3DVj+tHnO4+IK45RAysRm/0fHPOStnUNkEVk4l3BSVSLpGBLMIBOPXkt+IwiWPERyRAsQYxQ3hnAQF0QxEoWgc3qT8AfmDv70a/ekCzTeQtAHKuat2InfXncACv/D918AV9bPECHTlZHjsArFYhzqp9tP0SwZoD1tz6d21LPjm2MClXpmHD55gM8/mM6RsiQnh2pE19Ql1WOJ69UiXOHizfuFQiBvLGDuvFY0bggJDJlEAq+pUwHWdrxD5C/DReo878RCm24I5U+8haAaJGW82nmkf06UZ8u7UQ50LJMGNYjYZkWfL5bnIgGEAZ0a0/fun50A1pg5A2+nITJAuiG81LJN64d1YAO3fJz8z4zzQl76PIRfejWScMa0EHO068vEYaFZGvdgMhlAX5/3X9XPHb7P6RT7LwFIDKPVuelD9fTly8cSGMHdklanjl83fLTjftEa3XR0O407ZKGYIG8mR9vINyQQ684mUF140WDG8iFdasX319NW9joEKYWN/PC8OUj+zSgq+L1vGfeWsG34s6I1rIBgcsC2AhTMRsK+03Fo7c/lG7R8xqAKAS6U1ynXLRhH117fj/RrcIUmnRebikrPtlMn+04JBZ6JzD4bpk4RLRwkgZPdI4vsWWqzXtPsD9Ml/Ei9A3jBwk6teOs5/R+x6A6fKpajPtunjCYJvHs2M8tnerOVNXRv83+lGp550K3fIZmvB7v07N+NvVXqp5S+cXw+N/fXCXqQM7QrAoxxzRmpCULwXJWiEBBZtLinRsa0xkeKVeGxo6VLFb2WH4pAWHsh4wAW/EvYktVhbygaziDHubTJChL+RI3ukUZj6fBz4vPTCfB0pqNDcG+i4wXRPyCm3V1DCooBnxteHcC6WL/2AiDzZiQAGTI/KpArC7U8qp+kVbDAsqkES3Kb2rNyADCJIXJa8QbtAaPDMFbJFwqE/wWhalPGaCGC17Bb4RKHahlEDEswzRS/q3Zj07/E/jsOtEChlm7fNMs0qzYldaIfFjiKCxA5YdFqyhrB3UiwYfkqxlkCDOc4TGUZhj7kYqvEnRqvMVkLPxCySwE3SxioiohkoAUZ6bnngd0w4VX9xRtFV6AzusNL2v+Wz22yq+ZbGrAy+ZR+HTPSpvsFpsAYDjse6ZlWh6xyqk9DmqAv/tL/vq6zTN/Oq0yW7ECgKWt2r7J39L5nL9mna08ze8CDfCIrabQ5/myE0UVAHxwyuC6urJT5/Oe3UrsMuju2AnVtjAZAhdil4aXEcLTXv3JtG1OlFAAEIJmTJ4c6NjXM5FHltfwLPUdHmDWO5GAltEiNMCQCK1jTHyvqKhgGM985zpVqv8HsWXAGacX5KYAAAAASUVORK5CYII=;" vertex="1" parent="1">
          <mxGeometry x="370" y="160" width="67.37" height="80" as="geometry" />
        </mxCell>
        <mxCell id="u0ZUq6SkKT7h-yAJdBjN-9" style="edgeStyle=orthogonalEdgeStyle;rounded=0;orthogonalLoop=1;jettySize=auto;html=1;exitX=0.5;exitY=0;exitDx=0;exitDy=0;entryX=0.5;entryY=1;entryDx=0;entryDy=0;endArrow=none;endFill=0;strokeWidth=2;" edge="1" parent="1" source="u0ZUq6SkKT7h-yAJdBjN-2" target="u0ZUq6SkKT7h-yAJdBjN-1">
          <mxGeometry relative="1" as="geometry" />
        </mxCell>
        <mxCell id="u0ZUq6SkKT7h-yAJdBjN-10" style="edgeStyle=orthogonalEdgeStyle;rounded=0;orthogonalLoop=1;jettySize=auto;html=1;exitX=1;exitY=0.5;exitDx=0;exitDy=0;entryX=0;entryY=0.5;entryDx=0;entryDy=0;endArrow=none;endFill=0;strokeWidth=2;" edge="1" parent="1" source="u0ZUq6SkKT7h-yAJdBjN-2" target="u0ZUq6SkKT7h-yAJdBjN-3">
          <mxGeometry relative="1" as="geometry" />
        </mxCell>
        <mxCell id="u0ZUq6SkKT7h-yAJdBjN-2" value="" style="shape=image;verticalLabelPosition=bottom;labelBackgroundColor=default;verticalAlign=top;aspect=fixed;imageAspect=0;image=data:image/png,iVBORw0KGgoAAAANSUhEUgAAAKAAAACUCAYAAAAUJCKWAAAAAXNSR0IArs4c6QAAAHhlWElmTU0AKgAAAAgABAEaAAUAAAABAAAAPgEbAAUAAAABAAAARgEoAAMAAAABAAIAAIdpAAQAAAABAAAATgAAAAAAAACQAAAAAQAAAJAAAAABAAOgAQADAAAAAQABAACgAgAEAAAAAQAAAKCgAwAEAAAAAQAAAJQAAAAAIcC/bgAAAAlwSFlzAAAWJQAAFiUBSVIk8AAAFStJREFUeAHtXQuUFNWZ/ququ2d6mIHhJS8HEDFCEHKSCaCsETUbXQ+SjQjTM0TdbDbGXTVmc1yzURgy6wy4bFyXXVfdmGSjITAPHhLyOFHgQHJwYRANASU4IqIQHgrMAPPs7qra/69HP2b6Ud1dNV1ddS9nqKpb9/73v9/9+r7vXwDMMQTyiACXx7TTJn1z3U7PGO7sAl7gHpZl+UbguOK0kVgA2yIgy3CG42GTyHHPb3ii6jApalsC1tXV8YeF6fsEjqskLZGAtgWWKWYcAQ4ZKMtSEGSpoam2pt6WBPzaf7xS3tvZ91uO5+cy4hkv3IIKyXGyHJLmCXZTumbl+jHhXukgJ/DTGfnsVjrm6cOR42GyrWrAmlXrp0mi8CrHwUTzssok2RkB2xCwuqFxHsj8NuC5Euwk2BkzppuJCPAmyspa1NL65r8E4HfgYIORL2sUCzOiJ99qL3myZanEyz/jgMf+KKv58l0e2aafbX89r00wzfON9Zz5LvJOzDbjLF7+EZCA5zlenMRLwjze550phkKGlcorAQ1ryQIWDAKBVRvuBEnaisQyxC1DgazI/T0r144Ly2XYBeixQjyTaSUCfj8Il0X5mu8vOlXHcVL/pGrqW24FgdshSwNe9Q9qjKUDYuXgEWhoWYF9vceR+UU5iGFR7YGAJIO00R/u/fuX6v62I1al6pXNT/KCt1YKp26OB60GrH6qcbIs8tu83qKp4VBfrK7svoAR4AUPiFL4siDBovW1ge16VpY80+IXuuXL+JxysWNQpmHua2iZACL/J2Q7I59eQg65SmIYOBnKQOC3Beqbro5k60oIYkv3YeQ5yY3lBKxZ1TI/CNIRtpMlSQk4xFvC/h6u3T8alx05fQffUgIuWdm4QBC8u3BAVMpWN+KKxpkPMsyOyxgu9qZz6UOkk5DkfXV98/0emdsaDmFNzJwrEOBALss0o5YQsKp+/eOeoqIXZayUM1WIhXcXAqYvxdWsbP4fwVv0AC3N4NVdaDomtzi5Ioq4Z9T6BSpTCbhkVcunZVE8FO7r+2bqwbdjSspxGcFtojIujZbKEn8zNqnzZZ4rtzKTphJQ2+ev7PW3Umkme1AQWPOVup+W+wX//YKn+N+smrs1hYBfrfv50G6Qij2+YradZVC4YU0ixd7e7rWP3delS9+irm78oKZh40n0W4d/pi9c5ERA3ERawUncc6LAzSzCyUgOF2YYA/XiK5wrsQrLTQ71+dpx9mLX0BMdD7344gORNbTG5YsbqxuaH8G53OvNnk7LmoDVqxrnypKwG/t6Hl0pRr7CIV2sptFy40bxgnDNxYnlVbiqUdlcW/2+Hg5XO1YLPt8r4aC5y6hZTZNUP9n8dZD43+PZjQj5dEXZtbARkHDki8eFhmHZ7ozLiSju5sxvgSFjAgZWNt3He70/QeV8es0Xpyh7KHwElCm04gql2dVywwOe5cVq0GyXEQED/9LUwMncy5IY6R6YrQ+TZxMEpDCeHefkxVarY4yAsszVPNm82usvXma1Qky+PRBQhpMSX2q1NoYGIbi5sFHm+YDZHVCrM8fk54IAjo3Nb3EHKJSSgEufWjccD4pv9pWU3SwG2aaCAegVjAfWZ7hdigYYdnMpCShByTBODK0KXe5aZTfFmT7GEOB4ATtQ4WFYmS3E0e3fUKxsj1AaSzGzUCkJ2PT4XcdRHP0xV/gIbHrwuZaHL1yQX+AE4Z7B2GhgBDJjgxAjklgY2yPw/ENVnU21gXslWXxW8HhtoW9cDVj3871Di4o9S2Uevog23K7Eujp+7Q/rcSmmZyorXQq1p0r/x5t0Uf3pYF6sv6if1FMjx4EQGw7Tj7yLuVU6xtibibwjD1wBVJziq91HPKNvMCTZpov2gwY0RZogXR5FVfMVm2vy1BNBPDBR9Vccf7o+GgTDKsE1nfGe7nQJlDfMASWlusgL9ZHyqnvF5ylODUUlCqnXKBIaP0MJZzGPBzhJeKVxxeJ3tBSgeVngkeqGpi/h0u403S9f1wgBV29+c7oI0puYWT8po8x643S4knkdTW3RMKKsMjEZz1GCU42jhlKjRCBE20N6bJQd9VY841eS9YAYCG+jQXGbK/6LjYtqKgGQXrpwnMNSbxUf/QHfx87mR0Nr8vUkNW3ooojG+LGvYuOhmTstv4pWaqL4f2wY8qSUVRe9U56VBPR3sfFUCbEpK9mIExzzgCKoOGJ8VPEcd7fMi/XVDS3VTcurmjUlMCDXjCp9P/KcpxvlB1PX+NZ4/A3uQ/ssCvnypEuBJ9u/6HPPTvwPMld5csOSlpbIEUmcZH4P19xyFZpzfIWA/mLpUV6gSUfzQcxZQybAFARwNDw1/KFnZESYZA97PAoBkXb3GjGjEFGe3RQcAoLHA/5wT4XdFNf6rNxouynG9DEXAeozy5J3hLlSc5emETB3QUyC/RGgSWm7ackIaLcScZk+jIAuK3C7ZZcR0G4l4jJ9GAFdVuB2yy4joN1KxGX6MAK6rMDtll1GQLuViMv0YQR0WYHbLbuMgHYrEZfpwwjosgK3W3YZAe1WIi7ThxHQZQVut+wyAtqtRFymDyOgywrcbtllBLRbibhMn8ihJJflO2l28TQZiCKexsDjavgRUvwAEPuNJgXLhBeMgBqIRLyJo8rg+msnwIxJo2FIsRdOnb8M63a+A2faO02AmolIhAD7eSMqIh7u/eyUMfBPi66Hm2ZOhJFD/VDs88CUccNh6S0z8Chp/k+PJSo8J/i5ugYkXlFze/vnpsDCudckLM8x5UMUMnb3MZuICQHK0dPVBOwLSRC4aRrcPHNSUhh9XkHpCyYNwF7khICrCfiN2z4DldeMNQQgmfHwF3nh0xWj1PPcdMqMWmY6bqZdjp66ABcu9zDCKogY+8+VBCQyPYr9vYrRxr+tR+Srv3c+lODgJJkLo+Gb2pd3Qntnb7IgzL8fAq4iIBGvGJvUB++sNEw+moahmZixZUOgCAcmqRyFnTh6mELAYq8HFsyZCsPLihWDE/3PQ3b1BuHXrW3Q0WXuZw9S6WfHd6kRtaPGOeg0rKQIngjMgyIkYWZOM9JkIJJOtK/eeh3MnTYhZYzxI8vg6Y17sBVXDRZxOO+otegKack0EtmHIT+aJnKicwUBqWmcgIX9Dws+mwX5Mi92Gl2X+X1pIw4p9uFEN35shRfgni/OgkljyiM2tPTIRDuaJtpz+CT8qvUICA77Aq4rCDhlbDn841fiP+atF7AlV2RNJhXWdZOvgBuvm5hSlQps2ve3nYRPOrpThiu0l44mYDAswtxrx0P1TdOzLheahLZ6tt6H/cX0TgavJ9OuQ3qp+Q5hJOf51jHr9OdNvxJq5mdPPkpYXQRhKyFZF0KaiI4kIPX57qi8Cm6vnJIm++x1vhGwunUZ9PzRiHLe9AmMfIOOfHYJOoqARL5xI0qh6gvm2t6O2rXODmQWKzkCjiIgWbe/99YZyXOb7RvWBcwWubTxHEXAkiIPlA/BlQfmCgYBRxGwuy8MJ89dKhjwmaL6N1YcggRtof/xa4fg/KUeU3PEWmBT4YwT5qgakIgSwsnnNb/YD++fbo/LaE4PDlv+ygkLkyM7ioA6Nj3BMLzwmwOw+52Tuhe72hQBRxKQsKYpmQ27jzAS2pR4ulqOJSBlUBB42LynDX6x9z09v9ldnbkTKjssTI7laALqg4dtb30AG3e/m/WeOn+RtZsA+kLhtMVKm12pf+s052gC6oVFB4v+708n4ac4Qs7GxX6x0lB8nfmGAgMc+uCs8pcq+LodB+Fse1eqIAX5zpGbEZKVxB+OnYHnfhmGv7t9lnLUMlm4XP1pL+C5S+n37XV09eL3htESA244fappN3ixyxD5giUJQUc7okO4uYK2hXlid0znqqRN4ruKgLSf7ujpC7BmyxvwvaobMioCIom6yzRV9Ubb51XirNt5CD652IOH28vxG20S9Ia05hPf0xav9s4+2Lo32i2gg/DktOjqPZKPal+ftg9Ql628dMh/riKgXmanLnRCfePr8PDCShhemn7pjoh77Ew77D1yCmZddYUuRrtqIxRk1TGce2z783nNn4PfvPGeUrshj9SvSdObGIY5cYOplnnDF1cSkM5h0Pndp1r2QG3NX6Q9v0Hh6VDQ+l1v4x9hq5GO7nRCoVf/g0MebFI9AlZ3+I6aUsVp4aMSVG+3/u+KQUiywu3F0Wd942746OPM1o+JQwP/GKWS4ZzK39UEpN5cH/bNVuPRyGNnOpLiFMY+XKqeX9KI7EVaBFxNQB0dair/c+sbcPCDj3WvyJUI+nFHFw4cGAUjoJh441gC0rRFJqShJvX5X78FOw4cBzpTIuL0CNV8jbvegc4eZhnLRM7FiXLcIIQGAgvRJMbE0UMVIh08/gmuB39kyNKpz8PDptePwPY/HEcDlR5loEIbG5h9wDjOmPrgKAJSrfWtOz8HdBBdd9deOQImXVEGzb8/Eh2x6i8TXKk57kS7LZ29qs0WeqbJYuasQcBRTfAotGxKNV9/N+dT4+HrX5rFarL+wNjg2VEE1FcMEuE6Y9Io+Mbtn1FssbD6LBFC+fErCALSAIF2gpCpjUR/1PSSo0nhVOSaXjESvv3Xs8GfsXWs/BSOG1LNax+QiBXr+j/TOyLV2OFD4JZZk3BNFH8vWhw9Ki5SwOET56H13dOxopLeV2AT/a0vz4Znf7kfutDuM5tcSQrVoLzICwFppDp8SBGMG14aRwAJ2UWEoLm3tj9fUKZRvIIA38Y1WzpwlMxRzXYGtyp19gTj5CULP35kKXx38fXwX1v3KyPdZOGYv/UImEpAZS0UyUW1U2SNVL9H/tB0BoWZjLXQ/bfNTJm7Pbjwv6X1KE6H+FKSTxdShuEudffpFaTunfRKmxAeu3suPL2pVd06xSaak2Jl5QvTCEjTFQtnT4YRpUVIvoEqnzh3GbYf/FCZ0phjwDD4jImjcDu98a30lKQyXZIg7YHaqD4laPeZasIXcAL6/bMdlpthS6aHm/1NISANDO6/ZXrCKRAd3MlXDFXm13YeOql7pbymaHFTxsv0Je3D+85dc5Q+YdvJ8xmtnmSaFgs/EAHTRsHUn0vnxmMYpZlOFzAP7x9cUAmVU8cpqyd5SN61SZpGQCMIZtA6GhE3IEzqSZgBweM8aM/f13Cyej5+tCZRFyIuMHswDYFBJaBpWicRRPOBuZCQxAbQnO+COVfjSDz9SbUkajDvDBCwPQHz0WTf8fmr4T60Wk8DK1YbZsCmLILanoDhMB4GyoO7cUYFbte/UT2plof03ZKk7QmYz4IYUeaHh3ASnPqHzFmDgKMIqPQBTR7p0Mdj6OPVzFmDgKMIaAVEtDua7Qe0AllVJiNgGmyP4pp0Vy/bkp8Gpqxfm0bAkOg8wzmfXOyGl7cfNLy+nHUpuDeibA4Bsd9lh+kKM5tK2tjwzOa90OdAi1R24Lt2YGy7KWvBdsgQbRSM3YGTi06n0XTH87/aD5dpexfbJZMLlInjchwWFX5vXhJqHUNAD+4bNGMATCbQntm8D40J4WZVRr7EBMrRl+cFLtgX+s7GusWtphCQCj5jG3o5ZqJ/dK8n97k6Opj+Evb5giG0hJC7uP4qsmcNAVkML95YV72JHk3pA9KS1e80g+C0dJboj6YzWttOK8tblpVEDh3RI7it/yevHVB2wzDyWVNCym9akm5qXB5QyEepmFID0kpB69EzcOzsJTT8iOunJFkjA93TLZ21be/qU2qWiK08CpfEkVHGTJ2ICWXTD6SD6Fta28z5NWaqtAvCU1cGj1v08CL3hcYVNW/GZtkUApJA2m5/Dk2eKYMB8oipjfQNBfQL8KCt499igU9Fw42lSVYYKPxrGIaMjBt1MckZjaKE20HkQ0ORPOoVq3NGQljglAjg7ESHT/Reu7Zu0QDjO6YRMKUG/V5Sc7xm65vgV6yCRjtbsky1HqeYpO3BE2t0EKk7GFLstKRbjz3b3p3xwfPGXYdh9+ET6q6XfjqyRzMQkHENUz7hEcPz1tYFBpCPUsgLAfWs0bfdYp1eU5Jf9BQcBz/Y/AZ8Gffo+bwDa0Qa/JD9lxP4jTijAxFqpn/86h/hj2gcnPqvzFmEgCwdaKqtCaSSnlcCplJMf0cDgvbOXvjf7YcAZ47UZhL7lEqTqz1TH4O6AEaaYQpDxzHfP91hyGCRrge7pkcAoY00ZxuqqsRv/nD/Peli2Z6AlAEiYaQ/qLEsSjZtDzTmXjerlizTNBD69037lLPA1KTH1rjJ4jD/jBCIs/L54gOfT7uI7qj2h0bOx89eTIgYLa09jeSj2jTavCcMyjyzRAC7Nq2ZRi2IGtBopqiW3PD6u3DVmGFQoo2waSfL0VPt8LMdh3AqQK1Njcpj4YwhQF0gJF9vWPSuMRYjGspRBKQOCK3f/uvGVhjq9ylNLNl/uYQfhGHLatFCN/sOydcpc/INm+ruPpapbEcRkDJPJOxG0nVhfw+7hYpj5NOAMPnC4XeUcersHC9xf7V+ReDtbMQ7joCxIBAZdRLG+rN7cxCQRPGjniL5hq3/XHMqW4mOGoRkCwKLlxkCHK0agXTE5/fNzoV8lCojYGbYuz600p2RpH0l3pI5ax8buLSWKUCOboIzBYOFT40Axwm0qeDV5mVVd+CozpTeDSNgaszZWw2BIH2zs7dz27DRlxaaRT4SzQjIKJYYAazfaAUqxnU2La+5LebZlFtGQFNgdJ4QlXxiu56zDXVVQf3ezCsbhJiJpoNkCT60dCvBWquzxAhoNcKFKB+rP7Gv91DTipqXrFafEdBqhAtMPi9gr0yW28JhzvT+XiIoWB8wESou9sMTa4ealgdmDRYErAYcLKRtno7g9ZGG2zxFfTcMpqqsBhxMtG2clhgObsSab8lgq8hqwMFG3GbpeXC0i+cZ/ntaqCrl2Q2r1GY1oFXIFoJcPNcghnpXNi2rXp4vdRkB84V8vtPlQUATQY80Lq9+Np+qMALmE/1BTjscjh6DbV5evW6Qk0+YnNoHlLnOhG+Zp2MQoGVdr8BlvXHUKiBUAnLyFnWToVXJMLn5RiAc7LsQDMLRfOvRP32FgKIsrca9/dH6uX8o9lzQCCirGwA/smpDQS7gKARctmj225IsPoKCehUjPf324eSSAIubPwT0w1hiKLylqTbwvfxpkjxltQnG90/cNeeFMAfXSWHpaTzJ8yEqb8qO1+RJszdWIoBHJS9iOW5Gk3Xzm1cE7rIyLSabIVCwCPw/2nXdeojo4v4AAAAASUVORK5CYII=;" vertex="1" parent="1">
          <mxGeometry x="371.25" y="310" width="64.86" height="60" as="geometry" />
        </mxCell>
        <mxCell id="u0ZUq6SkKT7h-yAJdBjN-3" value="" style="shape=image;verticalLabelPosition=bottom;labelBackgroundColor=default;verticalAlign=top;aspect=fixed;imageAspect=0;image=data:image/png,iVBORw0KGgoAAAANSUhEUgAAAKAAAACUCAYAAAAUJCKWAAAAAXNSR0IArs4c6QAAAHhlWElmTU0AKgAAAAgABAEaAAUAAAABAAAAPgEbAAUAAAABAAAARgEoAAMAAAABAAIAAIdpAAQAAAABAAAATgAAAAAAAACQAAAAAQAAAJAAAAABAAOgAQADAAAAAQABAACgAgAEAAAAAQAAAKCgAwAEAAAAAQAAAJQAAAAAIcC/bgAAAAlwSFlzAAAWJQAAFiUBSVIk8AAAFStJREFUeAHtXQuUFNWZ/ququ2d6mIHhJS8HEDFCEHKSCaCsETUbXQ+SjQjTM0TdbDbGXTVmc1yzURgy6wy4bFyXXVfdmGSjITAPHhLyOFHgQHJwYRANASU4IqIQHgrMAPPs7qra/69HP2b6Ud1dNV1ddS9nqKpb9/73v9/9+r7vXwDMMQTyiACXx7TTJn1z3U7PGO7sAl7gHpZl+UbguOK0kVgA2yIgy3CG42GTyHHPb3ii6jApalsC1tXV8YeF6fsEjqskLZGAtgWWKWYcAQ4ZKMtSEGSpoam2pt6WBPzaf7xS3tvZ91uO5+cy4hkv3IIKyXGyHJLmCXZTumbl+jHhXukgJ/DTGfnsVjrm6cOR42GyrWrAmlXrp0mi8CrHwUTzssok2RkB2xCwuqFxHsj8NuC5Euwk2BkzppuJCPAmyspa1NL65r8E4HfgYIORL2sUCzOiJ99qL3myZanEyz/jgMf+KKv58l0e2aafbX89r00wzfON9Zz5LvJOzDbjLF7+EZCA5zlenMRLwjze550phkKGlcorAQ1ryQIWDAKBVRvuBEnaisQyxC1DgazI/T0r144Ly2XYBeixQjyTaSUCfj8Il0X5mu8vOlXHcVL/pGrqW24FgdshSwNe9Q9qjKUDYuXgEWhoWYF9vceR+UU5iGFR7YGAJIO00R/u/fuX6v62I1al6pXNT/KCt1YKp26OB60GrH6qcbIs8tu83qKp4VBfrK7svoAR4AUPiFL4siDBovW1ge16VpY80+IXuuXL+JxysWNQpmHua2iZACL/J2Q7I59eQg65SmIYOBnKQOC3Beqbro5k60oIYkv3YeQ5yY3lBKxZ1TI/CNIRtpMlSQk4xFvC/h6u3T8alx05fQffUgIuWdm4QBC8u3BAVMpWN+KKxpkPMsyOyxgu9qZz6UOkk5DkfXV98/0emdsaDmFNzJwrEOBALss0o5YQsKp+/eOeoqIXZayUM1WIhXcXAqYvxdWsbP4fwVv0AC3N4NVdaDomtzi5Ioq4Z9T6BSpTCbhkVcunZVE8FO7r+2bqwbdjSspxGcFtojIujZbKEn8zNqnzZZ4rtzKTphJQ2+ev7PW3Umkme1AQWPOVup+W+wX//YKn+N+smrs1hYBfrfv50G6Qij2+YradZVC4YU0ixd7e7rWP3delS9+irm78oKZh40n0W4d/pi9c5ERA3ERawUncc6LAzSzCyUgOF2YYA/XiK5wrsQrLTQ71+dpx9mLX0BMdD7344gORNbTG5YsbqxuaH8G53OvNnk7LmoDVqxrnypKwG/t6Hl0pRr7CIV2sptFy40bxgnDNxYnlVbiqUdlcW/2+Hg5XO1YLPt8r4aC5y6hZTZNUP9n8dZD43+PZjQj5dEXZtbARkHDki8eFhmHZ7ozLiSju5sxvgSFjAgZWNt3He70/QeV8es0Xpyh7KHwElCm04gql2dVywwOe5cVq0GyXEQED/9LUwMncy5IY6R6YrQ+TZxMEpDCeHefkxVarY4yAsszVPNm82usvXma1Qky+PRBQhpMSX2q1NoYGIbi5sFHm+YDZHVCrM8fk54IAjo3Nb3EHKJSSgEufWjccD4pv9pWU3SwG2aaCAegVjAfWZ7hdigYYdnMpCShByTBODK0KXe5aZTfFmT7GEOB4ATtQ4WFYmS3E0e3fUKxsj1AaSzGzUCkJ2PT4XcdRHP0xV/gIbHrwuZaHL1yQX+AE4Z7B2GhgBDJjgxAjklgY2yPw/ENVnU21gXslWXxW8HhtoW9cDVj3871Di4o9S2Uevog23K7Eujp+7Q/rcSmmZyorXQq1p0r/x5t0Uf3pYF6sv6if1FMjx4EQGw7Tj7yLuVU6xtibibwjD1wBVJziq91HPKNvMCTZpov2gwY0RZogXR5FVfMVm2vy1BNBPDBR9Vccf7o+GgTDKsE1nfGe7nQJlDfMASWlusgL9ZHyqnvF5ylODUUlCqnXKBIaP0MJZzGPBzhJeKVxxeJ3tBSgeVngkeqGpi/h0u403S9f1wgBV29+c7oI0puYWT8po8x643S4knkdTW3RMKKsMjEZz1GCU42jhlKjRCBE20N6bJQd9VY841eS9YAYCG+jQXGbK/6LjYtqKgGQXrpwnMNSbxUf/QHfx87mR0Nr8vUkNW3ooojG+LGvYuOhmTstv4pWaqL4f2wY8qSUVRe9U56VBPR3sfFUCbEpK9mIExzzgCKoOGJ8VPEcd7fMi/XVDS3VTcurmjUlMCDXjCp9P/KcpxvlB1PX+NZ4/A3uQ/ssCvnypEuBJ9u/6HPPTvwPMld5csOSlpbIEUmcZH4P19xyFZpzfIWA/mLpUV6gSUfzQcxZQybAFARwNDw1/KFnZESYZA97PAoBkXb3GjGjEFGe3RQcAoLHA/5wT4XdFNf6rNxouynG9DEXAeozy5J3hLlSc5emETB3QUyC/RGgSWm7ackIaLcScZk+jIAuK3C7ZZcR0G4l4jJ9GAFdVuB2yy4joN1KxGX6MAK6rMDtll1GQLuViMv0YQR0WYHbLbuMgHYrEZfpwwjosgK3W3YZAe1WIi7ThxHQZQVut+wyAtqtRFymDyOgywrcbtllBLRbibhMn8ihJJflO2l28TQZiCKexsDjavgRUvwAEPuNJgXLhBeMgBqIRLyJo8rg+msnwIxJo2FIsRdOnb8M63a+A2faO02AmolIhAD7eSMqIh7u/eyUMfBPi66Hm2ZOhJFD/VDs88CUccNh6S0z8Chp/k+PJSo8J/i5ugYkXlFze/vnpsDCudckLM8x5UMUMnb3MZuICQHK0dPVBOwLSRC4aRrcPHNSUhh9XkHpCyYNwF7khICrCfiN2z4DldeMNQQgmfHwF3nh0xWj1PPcdMqMWmY6bqZdjp66ABcu9zDCKogY+8+VBCQyPYr9vYrRxr+tR+Srv3c+lODgJJkLo+Gb2pd3Qntnb7IgzL8fAq4iIBGvGJvUB++sNEw+moahmZixZUOgCAcmqRyFnTh6mELAYq8HFsyZCsPLihWDE/3PQ3b1BuHXrW3Q0WXuZw9S6WfHd6kRtaPGOeg0rKQIngjMgyIkYWZOM9JkIJJOtK/eeh3MnTYhZYzxI8vg6Y17sBVXDRZxOO+otegKack0EtmHIT+aJnKicwUBqWmcgIX9Dws+mwX5Mi92Gl2X+X1pIw4p9uFEN35shRfgni/OgkljyiM2tPTIRDuaJtpz+CT8qvUICA77Aq4rCDhlbDn841fiP+atF7AlV2RNJhXWdZOvgBuvm5hSlQps2ve3nYRPOrpThiu0l44mYDAswtxrx0P1TdOzLheahLZ6tt6H/cX0TgavJ9OuQ3qp+Q5hJOf51jHr9OdNvxJq5mdPPkpYXQRhKyFZF0KaiI4kIPX57qi8Cm6vnJIm++x1vhGwunUZ9PzRiHLe9AmMfIOOfHYJOoqARL5xI0qh6gvm2t6O2rXODmQWKzkCjiIgWbe/99YZyXOb7RvWBcwWubTxHEXAkiIPlA/BlQfmCgYBRxGwuy8MJ89dKhjwmaL6N1YcggRtof/xa4fg/KUeU3PEWmBT4YwT5qgakIgSwsnnNb/YD++fbo/LaE4PDlv+ygkLkyM7ioA6Nj3BMLzwmwOw+52Tuhe72hQBRxKQsKYpmQ27jzAS2pR4ulqOJSBlUBB42LynDX6x9z09v9ldnbkTKjssTI7laALqg4dtb30AG3e/m/WeOn+RtZsA+kLhtMVKm12pf+s052gC6oVFB4v+708n4ac4Qs7GxX6x0lB8nfmGAgMc+uCs8pcq+LodB+Fse1eqIAX5zpGbEZKVxB+OnYHnfhmGv7t9lnLUMlm4XP1pL+C5S+n37XV09eL3htESA244fappN3ixyxD5giUJQUc7okO4uYK2hXlid0znqqRN4ruKgLSf7ujpC7BmyxvwvaobMioCIom6yzRV9Ubb51XirNt5CD652IOH28vxG20S9Ia05hPf0xav9s4+2Lo32i2gg/DktOjqPZKPal+ftg9Ql628dMh/riKgXmanLnRCfePr8PDCShhemn7pjoh77Ew77D1yCmZddYUuRrtqIxRk1TGce2z783nNn4PfvPGeUrshj9SvSdObGIY5cYOplnnDF1cSkM5h0Pndp1r2QG3NX6Q9v0Hh6VDQ+l1v4x9hq5GO7nRCoVf/g0MebFI9AlZ3+I6aUsVp4aMSVG+3/u+KQUiywu3F0Wd942746OPM1o+JQwP/GKWS4ZzK39UEpN5cH/bNVuPRyGNnOpLiFMY+XKqeX9KI7EVaBFxNQB0dair/c+sbcPCDj3WvyJUI+nFHFw4cGAUjoJh441gC0rRFJqShJvX5X78FOw4cBzpTIuL0CNV8jbvegc4eZhnLRM7FiXLcIIQGAgvRJMbE0UMVIh08/gmuB39kyNKpz8PDptePwPY/HEcDlR5loEIbG5h9wDjOmPrgKAJSrfWtOz8HdBBdd9deOQImXVEGzb8/Eh2x6i8TXKk57kS7LZ29qs0WeqbJYuasQcBRTfAotGxKNV9/N+dT4+HrX5rFarL+wNjg2VEE1FcMEuE6Y9Io+Mbtn1FssbD6LBFC+fErCALSAIF2gpCpjUR/1PSSo0nhVOSaXjESvv3Xs8GfsXWs/BSOG1LNax+QiBXr+j/TOyLV2OFD4JZZk3BNFH8vWhw9Ki5SwOET56H13dOxopLeV2AT/a0vz4Znf7kfutDuM5tcSQrVoLzICwFppDp8SBGMG14aRwAJ2UWEoLm3tj9fUKZRvIIA38Y1WzpwlMxRzXYGtyp19gTj5CULP35kKXx38fXwX1v3KyPdZOGYv/UImEpAZS0UyUW1U2SNVL9H/tB0BoWZjLXQ/bfNTJm7Pbjwv6X1KE6H+FKSTxdShuEudffpFaTunfRKmxAeu3suPL2pVd06xSaak2Jl5QvTCEjTFQtnT4YRpUVIvoEqnzh3GbYf/FCZ0phjwDD4jImjcDu98a30lKQyXZIg7YHaqD4laPeZasIXcAL6/bMdlpthS6aHm/1NISANDO6/ZXrCKRAd3MlXDFXm13YeOql7pbymaHFTxsv0Je3D+85dc5Q+YdvJ8xmtnmSaFgs/EAHTRsHUn0vnxmMYpZlOFzAP7x9cUAmVU8cpqyd5SN61SZpGQCMIZtA6GhE3IEzqSZgBweM8aM/f13Cyej5+tCZRFyIuMHswDYFBJaBpWicRRPOBuZCQxAbQnO+COVfjSDz9SbUkajDvDBCwPQHz0WTf8fmr4T60Wk8DK1YbZsCmLILanoDhMB4GyoO7cUYFbte/UT2plof03ZKk7QmYz4IYUeaHh3ASnPqHzFmDgKMIqPQBTR7p0Mdj6OPVzFmDgKMIaAVEtDua7Qe0AllVJiNgGmyP4pp0Vy/bkp8Gpqxfm0bAkOg8wzmfXOyGl7cfNLy+nHUpuDeibA4Bsd9lh+kKM5tK2tjwzOa90OdAi1R24Lt2YGy7KWvBdsgQbRSM3YGTi06n0XTH87/aD5dpexfbJZMLlInjchwWFX5vXhJqHUNAD+4bNGMATCbQntm8D40J4WZVRr7EBMrRl+cFLtgX+s7GusWtphCQCj5jG3o5ZqJ/dK8n97k6Opj+Evb5giG0hJC7uP4qsmcNAVkML95YV72JHk3pA9KS1e80g+C0dJboj6YzWttOK8tblpVEDh3RI7it/yevHVB2wzDyWVNCym9akm5qXB5QyEepmFID0kpB69EzcOzsJTT8iOunJFkjA93TLZ21be/qU2qWiK08CpfEkVHGTJ2ICWXTD6SD6Fta28z5NWaqtAvCU1cGj1v08CL3hcYVNW/GZtkUApJA2m5/Dk2eKYMB8oipjfQNBfQL8KCt499igU9Fw42lSVYYKPxrGIaMjBt1MckZjaKE20HkQ0ORPOoVq3NGQljglAjg7ESHT/Reu7Zu0QDjO6YRMKUG/V5Sc7xm65vgV6yCRjtbsky1HqeYpO3BE2t0EKk7GFLstKRbjz3b3p3xwfPGXYdh9+ET6q6XfjqyRzMQkHENUz7hEcPz1tYFBpCPUsgLAfWs0bfdYp1eU5Jf9BQcBz/Y/AZ8Gffo+bwDa0Qa/JD9lxP4jTijAxFqpn/86h/hj2gcnPqvzFmEgCwdaKqtCaSSnlcCplJMf0cDgvbOXvjf7YcAZ47UZhL7lEqTqz1TH4O6AEaaYQpDxzHfP91hyGCRrge7pkcAoY00ZxuqqsRv/nD/Peli2Z6AlAEiYaQ/qLEsSjZtDzTmXjerlizTNBD69037lLPA1KTH1rjJ4jD/jBCIs/L54gOfT7uI7qj2h0bOx89eTIgYLa09jeSj2jTavCcMyjyzRAC7Nq2ZRi2IGtBopqiW3PD6u3DVmGFQoo2waSfL0VPt8LMdh3AqQK1Njcpj4YwhQF0gJF9vWPSuMRYjGspRBKQOCK3f/uvGVhjq9ylNLNl/uYQfhGHLatFCN/sOydcpc/INm+ruPpapbEcRkDJPJOxG0nVhfw+7hYpj5NOAMPnC4XeUcersHC9xf7V+ReDtbMQ7joCxIBAZdRLG+rN7cxCQRPGjniL5hq3/XHMqW4mOGoRkCwKLlxkCHK0agXTE5/fNzoV8lCojYGbYuz600p2RpH0l3pI5ax8buLSWKUCOboIzBYOFT40Axwm0qeDV5mVVd+CozpTeDSNgaszZWw2BIH2zs7dz27DRlxaaRT4SzQjIKJYYAazfaAUqxnU2La+5LebZlFtGQFNgdJ4QlXxiu56zDXVVQf3ezCsbhJiJpoNkCT60dCvBWquzxAhoNcKFKB+rP7Gv91DTipqXrFafEdBqhAtMPi9gr0yW28JhzvT+XiIoWB8wESou9sMTa4ealgdmDRYErAYcLKRtno7g9ZGG2zxFfTcMpqqsBhxMtG2clhgObsSab8lgq8hqwMFG3GbpeXC0i+cZ/ntaqCrl2Q2r1GY1oFXIFoJcPNcghnpXNi2rXp4vdRkB84V8vtPlQUATQY80Lq9+Np+qMALmE/1BTjscjh6DbV5evW6Qk0+YnNoHlLnOhG+Zp2MQoGVdr8BlvXHUKiBUAnLyFnWToVXJMLn5RiAc7LsQDMLRfOvRP32FgKIsrca9/dH6uX8o9lzQCCirGwA/smpDQS7gKARctmj225IsPoKCehUjPf324eSSAIubPwT0w1hiKLylqTbwvfxpkjxltQnG90/cNeeFMAfXSWHpaTzJ8yEqb8qO1+RJszdWIoBHJS9iOW5Gk3Xzm1cE7rIyLSabIVCwCPw/2nXdeojo4v4AAAAASUVORK5CYII=;" vertex="1" parent="1">
          <mxGeometry x="501.06" y="310" width="64.86" height="60" as="geometry" />
        </mxCell>
        <mxCell id="u0ZUq6SkKT7h-yAJdBjN-33" style="edgeStyle=orthogonalEdgeStyle;rounded=0;orthogonalLoop=1;jettySize=auto;html=1;exitX=0.5;exitY=0;exitDx=0;exitDy=0;entryX=0;entryY=0.5;entryDx=0;entryDy=0;endArrow=none;endFill=0;strokeWidth=2;" edge="1" parent="1" source="u0ZUq6SkKT7h-yAJdBjN-4" target="u0ZUq6SkKT7h-yAJdBjN-2">
          <mxGeometry relative="1" as="geometry" />
        </mxCell>
        <mxCell id="u0ZUq6SkKT7h-yAJdBjN-4" value="" style="shape=image;verticalLabelPosition=bottom;labelBackgroundColor=default;verticalAlign=top;aspect=fixed;imageAspect=0;image=data:image/png,iVBORw0KGgoAAAANSUhEUgAAAIIAAAB8CAYAAAClm2iUAAAAAXNSR0IArs4c6QAAAHhlWElmTU0AKgAAAAgABAEaAAUAAAABAAAAPgEbAAUAAAABAAAARgEoAAMAAAABAAIAAIdpAAQAAAABAAAATgAAAAAAAACQAAAAAQAAAJAAAAABAAOgAQADAAAAAQABAACgAgAEAAAAAQAAAIKgAwAEAAAAAQAAAHwAAAAAw/uRTQAAAAlwSFlzAAAWJQAAFiUBSVIk8AAAH1dJREFUeAHtXQm8HEWZ72Nm3nu5nkGju/jjh6KwQhRE8ZeEhJAXIsgpVwKamxDigqyLhBC5dlbIbRIOFwSEhEg4EoIYUTkkBBVFV111RdzV5VACcgXCu2emu/f/VffXXd1dPTP98sjMxKmkX1V99V31fV9XVVcfo2tIy7/9K4dyTo4TqjJY5MktEtpA6cvQSdz9YhTd0arSLpFeNESZ+tjxAkurTMKYYR4haGUmYWLUBL3HJG3fmRmLzRAgyfEhRZkymjOnKJz4KmA+qAydjyMVouhpOx6lF6yVQEmoVOS+VCZhTIkYxRC0MpMwMdXAwOWRtucBq0SxaBCBEKCyMBmiKCdyrEBfhk4hBQEahqY1QZRecFMCw3K4xuJFzhVu9PPEhsD5KWT6bFGQ5abtO/GpKFZCcEcEWXq0LCHHmqIAuV6GTkbjchQ9TcejtIKnEsjS4rnvThT8cgytipaUcmURTJqm70zPtFyP5RUQYiOCYFCGKNkUoCxDF1VMhZrWADEeMUBUarjOfSlPxlhhWqr5LeUZxAk9iEyWtu9Cvq+AQoTMXNHMIEZzA4Fr3OrliXIS8CPkflWFnrbjMR4xgC9OWeC+lCdjrDgLv6U8gzihB5HJ0vadWMj0SiEVEcrzCI0IfmeVkqrRJiBU6ZXWAD4PUkxPKZ/QWR2/wAA5T270W3xFZLrKZSJzeficKhNFMBJFJzYEDKpA8ZGT1wgpuKhQB+x0Vi3KtIwt5aYoGbNzcxkzoaU8gzCRVGOytP2WWCSf9cxcRo6Uq0CJUISrZacGF5VORW2Lrmu2TGqHatQSBggqmSBSjrpE4MssjEocAokO6Bib80CcLCncGrTYPn1QCDgkleyAga+AXiUDQQq9Q10OCZKYw/iqpJKvwkOEteq6frK/TeBFjQO+DAtNDSomumFo40Z+4uyODr2kam/C6t8C+bt++R5LK75ml1wX+iEmDSOxQJDa3B4C8MR7/2DUf3ebGiZZoKvUb7RghPUDQIHorhEUGLsz1ynkNEG1toB6dvEvJdxAKBsrte5BU/6gWSA23PNVjRbfYh40oU1G9WUBaWUZnwAi9xoUAYNlLcierq8+NbVJbwEHU4MbAPEwIG7qNYIcEUlzS3pdmhQ1tQAFQDwI2NXuVQPXaqpoU/g7ZYFhYNyPGIi6WQ4LNxDeKQ2afOvSAnIAsIKhQJAROHp0AA9h7GbesBYg38r+jXbEXSN4UHZ+GKkceRizWWtAC3hOdwMh5OtQJXXPrvrWkyc6pj5Pc3R5G13wCdadsaaq5LBmyFtKvYWLlp/b8eeqCJtI7gIhcqbLVWlqYDNHrQb46CgsuW6Y+oFmLneaLd2V4hsbgYT0O9akNFEZmaxWKvRe0AyCZB9EW7oAMAPjxxaNhO8Fgosl4fpLTFojpEq6blu4uWHZVioyRpajlGEiR4OuG5pj9U6+evqkx0NtzUplC8CPatu6DvamBlToVqcas7IQCcPCjVVdnLsSMKFI4pRiWQ+vEbdQBSLAJ189oxkECeasAuw63b1nzmWXLJga2PhVsBsoikqED/MLEncPhqmlL6PZn8zPmPgHqbVZrNoCNDm0SdhuEPihgEIQCBKaKHpYNL+ntT4tColc5VuXt6+CqCb+oanAcXo1y5qUn90MgkQ7VdHgbzEnmD4UCLLj+DY0LdCC1X5liWKNCCKZl0+lBPqtohCg4P65bb+hO/2HLZl9zI4wVrOW2gJ0oaYIAvazCAQ7sH5q/kqCssNBQJEklp6Ksm3rJUPLTbhm9oRmEAQm260SO13FJDQiqBDSwyj01GNIkuNlGbQwxEjwgm1ohy+dPuZNua1ZHqgFhmEwUDxpKI0QiRf05DQ+0t6GFmsEid7nU0U/KGqzb2YOXT79qGYQVGGvVChipAYF5xJxKBDYYZQHKVQJwEklbB9Iz0AkYSXC6dKz/12FrRde//2WRKRmQzoLdAM9wY10MUCHCAQOAJ87Azj3Gwa3wErQGoUP2ojCxtHRQ9uHPTK40prc2N5yzlYJRgR2OuWhpJ7vQyhVVmQFyPEkKSqNWBGemclOXLzhicfym57OVcm+iZZkgaGuTaPNbH/K3UCIOZ8IgyPKoFLdXSO4Qw45lc92WXAiD0+wXSpCOWNyf+/r2xNxmw1VW0C2PZd9Ytg8GBEA3R3n+0xRsMCIhVFeMSkEEx0FkG5mxi1e/6NHz7v5l9mKfJoIagvQGkFOsr2pjKReI8hEg132BHPUiekCMuTAkcMId7A0bDBOeXdr108HW5W/G36YGtjeIld0PDQiKNoHByRFoJnJQRfrTuw2PEPv3gVJDoUASiWbLkOMzBGXrn/i4XBLszYYFiDLJwYCL+xoeE6dJMdTBPouhuOLxcLa5bMnzWpry0xAQPS4sRDIiJC6gQwFLAvXpYZx7ML1TzRHhtQOCQh8XwDEZTJyKBB4UUe5jyRKAaNKJd7SZnrmZJgmDU9Xr5gz8cukQ37akTtLWWd/PMDyHO1EUgDQiR/QBWWWiR1HLWOa4xbd8aPvMqyZV2cBtqvAJmPLB4AiEDgAqmNZDRaLpRxuxmlv28XLls+eeJVMvfrzHa+3Oc4nSprdFZ4mZKxwmd7oNTT9pIXrHn8q3NKsJVsAt6Ejjo/iJt9rIEJKXuZW0v0lFjT0l0rW/FXndHxTRZ2f2/HWwg1Pfkizi09hI+mDNCX5STBALQKiacI0MmMWfnP797527qQTffwBFvJ3/+wUCDkT50WRWLji7NC3C2KsgYTRrgXT2/VLpk/8Ray9AQCSWRXPI8iOEEaR0Sv3zsLcgJuHIgAJGzP7PATB7eUovzZr/KuLbvvJYXam9ILu6CPZFURDH8FQJdyd1MysecLC2594atXcieMw6qRTVGIKEYdnMrmZxWK/BFUXffMgwqHbrUtmNFYQqIxEJ5+7RqDe4VBdyqnNUR5KwnAUS7pzwqrZR5cNAua0ct6EzmyhdDDOsL/wmsE3OiP5uSuBLi3x2v+YS27f/n2/aQAFOvfdtUyY2DOLO6oiWhyxiIHRDKx3bPuyJTPGnxemqN+a5xPXx+xrLyetRSAwUtANhnAetFQq4Sl23bGwpWQap6yePekHlfDl9qXzp7zS3auPdhz7NTGnyI1iwI7rA1xcWWY+c8m6bT/L5x9PnupCvNSVkOOFKPxhoJBPdLqGh3OXXjNjwjI1lzqEYkOJrwKTtHNHhJCRyQJB/8kOqZJjvGlltTGrZh71UCo6D/nGCzq6slbbx+DgHcGlZaAElcSBP+wj8UkYxxjbtZ+WKvB8/aSz3WfqdZxluFUseh179pKZEy73aRu4ENiSpwapM9xxBhFymrRqzlEbVs+Y9J9paKK4S+ePfeXt4vCDEAwvYZM5CFNf8ygFXXrSyGBOufi2bU8O5BY295P7zzlLwk0wEnLZ0plHbWBYI+a+CbmDlCO5UwPKVFddx9eqs7csOKKnYNmf0B37FfGlMldfoQ7N59F/1GAVsR2tG0e2DGmtal3CfRPPWXo2YJic07Aq3tXQnRO96UfeEpVR67JMzzALe0WcLyubsEaQUWpXvg5rBidb/BA2nV5wn8J13R/TiIIEB70Ag6uJV6yCfWUMJwVAsIPReH+F6mLEMTLj+z+YeSi/7vHGe2iGOhFNoqMAIvfWCFEMakQrH6MV7XsI9LVZx3XjNbqx2FXcRQs1Ujp2eLrAWa+PsNo/uvb8Kc+mUw/XDbLjUSYxfvLsQLfGEW3H9BrG9qlTp+LSoYGSwm4BKLZGQBM73+sjVdM+szjY5lk1t+NvvYUcNpvsF+JXE/ANNi7Q9rJT6BmTX3DE62nlY60YTzauXOidCqTAYGQeS8tksmMOOOGCHy7c8DDd12uIRH2gFPQlKBHcHRE859PmDccB54RUD+mm8496s9UZOgbX8p2iC1CQL4nskrUjY3T/09rzT0o5Eng9o0iQ+GF4KOlGZrKhGxMRYHj8N5BFdikWMTIYxiTdaX0MlA2yXuBplQMg7FV3jYA26mC9J7qacPTCB+AcOBxLSGzsQO0XLcc+cuW8z3bujv60pSRc6jgvW63ZQ5fOGv/7JbMm/BLrk6mIE1qF+mcTyaEgzJiZMYvWbd9+0aafyu+T7Y4aNaNVrBEoIqJHzfSLCV577md2lszcWMzq3VgY7tDa2w66bsGn/xJDTAWAq9Flx7J7C7Y2ZuXZ455h8pVzOx7AHul4+L0gYHTG4KBdxlKhSMWJ2c7CgPZMWEatcq8r4nkPLxBkx7thwMoRcr2lG86Z+Foxp+2Pm08da6cdKebx3dRRx3MSzxqOsf+ac47+a5TXynOP+YWjW2dgdMCWqXvLXMYxc9mJC2/f/tjCVfW5ZqCPaQkP4w9dKpNP6WEfnlqpL6ERQSATFAWOFqrWY/qP2VPeuP4Lx/5pMHSDc1+xcvaYZQiwJH6rZnc8aFjaBOxWYGRgS7nzbrFAIGey9q7c95Loaw2nEYwcT7q7eVgjEQi+07l/LjqRhLH30hoelrmJno2o1L2V8zuewgl1CgwpRga65BRnlbAULsFymaMvvu2xhntOgvoQGhHIEOR8OQDkciVD/T20rz5n8sPYZ5yEI7hn7Z1AuHrBl2JKlzWKHUQQi1HCmxpc17t/RSd4ZOC8UXq2h/RcPe/TPzE183icMWKWIIPSQ7m2ZX/22vnHbdtDalQtRt5iZudTLqfwiNB0vGybsuWV8yY9jqXjcbiULZBRS/19k9ecN3lrWaJaNob9HtPEDQRFAASRE6NpAjwLrF1wzCO4cjnJ0Z0z1iyY8nijGoZ8HXuQIzpkiLGvUXu4B/S+7gvHPboHxLwjImRfi0CQASRRHkXk8juiTZPpHrGAWAFG1gWy4NCI0HS6bJq9rFzBue6IIPc5GjXRuozbLO8dFgitEZoO3zucmqYXns9psHCnhjJBUGFESSO2iVsrC9BGQitWCWX8HFojsJ6y8wf+2ghza+b1YAHZpyp9Kq8RmpGgstteAZMHiIpTw17R42Yn/C0Bdj6NEPRoFY8UyqlBthsjyrBmuQEtAEfS6wpyor0FTqFAILAcJbS4MAJcpmnmDWgB1+nJzoytEegeezhF6+HWZq0RLEBf02qNKyq51g2EmPPDNPlpo93n9cLgZq1BLJBtae0TDpQcL08L1I3Q1BDtF9HRCPHFmx66Fg/x4lMHZRIe3Rm05PGKsYwBykl0e52KRMkOHCQDKlGUwLDkcE1JIICMZ3gFrlOjXE7mEG/pta0h+MoMupHcET8QfJTI6EDrBNPMfinG3idwWxy898MP+JcTGOMjAzyeeLFeQJmfj1Lh3SLVhkn4gQufk6IArSN9cpGq5yAzgNVCMspxkeUyleMRBHSKx8lYQkzvqAfw+h59jCwpQYFgjSBrEyGgD1KIFBEYVINShLRilcWqnFiJeCA0UZ67zcPrQFoLcL9lfeI84hAfX9EUdb+PqypEFHBHhAhQ0EUEBdWgpOJfDsZiBmL8gdBEdYnyoFfd6SjhnUZ8OgdvPBdw4C2mpOR1IK0FuN/MVk2vhgoaRVMqpxOTiBJRlvLI486FhOFhcdEVyjWhWlV/SDYf0efoq2JAqoBB1IHV0hIe08s8xK/GafqrpWLxX52+3tYbzz9W7zJ3jcBr9VdB2luh9yu9Dgg+xK9K4dxvyjnFLcgQCSmK7DWRD+R/jJaYywp4SpSR5k7rF974sKSvQqlEaUGDxGBAjpMdFXBNV6qGh/iFGHyAw+5pOeSWxZ/GG9bh9MUbHtm3aPf/Gb8b0UaGrybJfWf8OGUcwrgqMdXKFjwUCpSRFoiVkMSI4Nbpr9TioycXSD4d8tlejTOYozjLwCANDdNSLtNXzcNxSkYxO1YVBMTz6xce+xJOj3H0PYbE5PWb+094ZDn5cGnjEBceR5bP9qqCgIVT7qUy0hhF+ItJfSAK3lVDwExulMssr2qDy8ReuVa0viroBP7//JnO3Ms+TFHYubP3mX1GDvkNmj7O/ZbR1NZSQwVdpKkqR4cERhigLQ6RCdyySnfG8uk9pGCNwBhSnvSenIRStjigM1biKNNL4HRF6igOwQuUtq6/sD3f4V0GqVltzk8tgmqHbEgyHB8BFUMojyRFEwVA1UHg6S1OYbCW2SmkCeEyiaw7a+bzkBG9xmAfweMePWtVDJmxnEfp5LZqyrtLL2R4yiYZysWxK372Jp//d32Hc4RvG1f/MlwjTVU7mw0TMXKEHWOF8ghJqI0qPo9KiB6lGBHkOT7GsQxAnGUQNFAn7i69OFuoo54O1HnfAEl668aBlb7H+PQhh2SwD3dg+DyUGLIgzoVc92yvOgg8vVVnvCQpVmSyWIPQwdOYkSivMkWiPplqoM6WOe4WD6lT1XdPxIisgoavxB/64j7d4wD8cahBqrS/1Haanske4NCegkJY1c5mnpLuBFKwZMxQHiELt3GtHBLjRHIViXKNwA4b6BmromdYRCd1lTT1Dl8HYJIByxlRImNyH59pLfpFGMvZNv/aB49TCZ9/3dZp+GTOPTZ9HofUUPxT0fkwtrKsv6c36+DjSgVBRvKkg5uZTtiCeKmQGDmSy6hcjqCIqrhIOv/rPwBvEjfwtLv0wgIQn1YLldpxHnGI+OxOqfR93dSXWcXCXw2z5UDsyOfx1ffxeKO5ekMoFIhLU7NTkArEEH0SkpqlD62KTEISU0NaJ6bF97XjgqdAqMPcViZnvSl6DfoSKlKcB0EII95C+DLYaGk7Qc9kTshh+UhnvmXhUzi4VDKNhN8RIwUirGUpdE8myTasu9BB+iPT88kgNVdVTOIdIi6DRH3nNQJOAbrfJb5+LEYJ0WOp024HQ2qH5FSseIqk5aDSHx++6rWLpRugrscu3Q1aFxt/6YZcmVsLok9lbtrJfYYmjm0402Gy/Qiu0pvxfRuUQ2LkhLwqUoHE7vRyCMfIx1yphsOwRSBYht6hl/QW3DltMXWtFa97t2l2aYieMYcCbxg+XDUCcTIckTLM1rVhYDkCDPBpHp1+fXoYduFGwClD8f3BLP2kL4WT++1Dt8sURBxIIpfqoMd/Vx+6eokmJcTRum+96MRLo7i1rs9ds3UsOioCgXXx9RdOYaibi3se3rknMgw3DBOfHXaB4vwUdbTjO04gxqkAfrhJhszphrk7kXcBpxum7MQVD34Rx6BfxaE3GvC1OeA4VLY6Ae/B9156M6bWW7KMPl23wETvF4FwywXH/ySs4u7VLlqzqa176KihWn9fu14qjsRY246dnHbD0PeBwu3oTzt8PlJ3nJEYh0YgANrRiXchhoZrjo5x2THQCQPKI/ZopMLTDvR9XUfcpadb9v3gA5vpznk3f3eI3eNchvBLMbHL/fPHBxmoLAsfQBtOpAMMbzqd7desz3f06fg+I/rQAx+xt5Dj65U6vr4E7yEocB65bfimUR9gu3TT2UXOww8h74Kb3wLyLvR7l2M6b+LhlE7L0d6ydGtX1s4hL+5qG5HtumXByT2sw2DlPDUMFj/BZ+2Xp9GXzuio+F0ileB83jGe19bnhoz6QMbRu7OOnstqvYUsfJ3tw+IAX1w2KAiIdt+XT+p7sf27JyPYDlXxCsGC09MH8wMkcFBi4pOZfq9DTjTq4Wtsv0IQXEFw27Tn23YulzH6So5tFvENjeLQIZlisau/pPW1Fd/ESbg5P60uH/sr13+5z3Vdnr/mO1/CBsG1+HpJXE/2otTix4MEixYVZD4K09OzDFZ/36R1i05/wm9s0II00DVoD6C2PvT9N2LawCgcPjB00+ojdkR7GiETbBjHpyde3sFycNm5w+nZ9XPGbeR8rwgE/LYDXfddKV9SkgPLJdn5UTzZ+ez0KI5b13+0Pj83+LqaGqkhoHtFIJClezKd1+ORs7dVASA7ncvsHdnp0TOecVS5+EUXzbkDbSqRKpK6hu01gXDnhdM78ajuI5gohMHZ4ZTLyXc8gOT48me8TBmU6WKBgm7dwlMfDqCNXdprAoGuIizbvJamB3Z+1OkhxzNSBf/JscJl+nljXMt+tQJpQzXvNYFAVr9j0WefLPYXfkc7WgNxOnuOHZ4UK9hK7u/VMjQt7DVprwoE8oplavNo76naJDudyzFabuDctn87fPhLsQdfY3QNBKjeYg3SKfPtnb93rNL/RtUlH1JiX3LuQr2/VSDRtIAPbG65ZcGCSncpQqzrvdI4gYAV2qzV9x80d/UDG89ZvdU5Z9W38yrj4nKuz3b0e+lne9nZsn9VND4iNTKyh0g7EfI/3cQe8svWDUo+EnBq/ukcmLkrVwler8W6V3Tu9ZtGOf3ZCzDvn5nJ5kbTbWK63St29UqlbZbRP2vDl6ftkA1MPwDa2V/EXr43DHBjxMkMppycnZS4xcCWMj68vWnDpaeflYRL8FkrNl+JNxX/DcZ9EndN7vzWJWfeWg6/HtrqNhDOu/nmbOnt9y7Gj2h9lQwlFn8qi4mTTj913SWnfEdunrvyO1fj/sMVDn5VPnqWB3jJ7mfnB7h0ExC3thzn8PWLTqNH3WNpzsrv/QN+DWgbfqv6YPHSKZiIe2W23WXp9oziAc6Dm6dNoxtQdZfqcmqYu+r+ucXO9z1n5Fq+SgHgHq4/6aR2T2xdM3NtNF//FG/sv0fL50N9KTilm7FWwG1Z16Xy8B6UXX8QRvSIeYr0sK0Xiz3dz0bbZi29/90zlt1/h2X3/Z+umwfT7zbwACPufxj6sKyZe6D1OfMX01duGR+lr4d6XY0INKR3Ffo2ZLJt00rFfvahwk64ies4z+B1/em3X3zybxUIFC367FXffhTn5Fj3zm8Yyw2PMCxWE0guJn6j2sDaY8vGxafPjOEBMGPZfWfgxvlqBMD+qnaWRyOEZdtz7/rKGetVeLWC1U0gwLH6nNVbf477y5+idYAqkRHx+1q7DN08HVPBNhWODJu3ZtM+Bau1XdPo1n/KFCGxMqau9/e+vjE/4+0kTlPzm3ItLfpUrA/WYysjuMXvjUpMZ5gZreQUv3nXpVPnM6zWeV0EQh7D+nNthz2IS7PjY7eSPSNi5xAntvNf+y/67RF5Pa+OlFpb05M/ffkDH9Pt4o/xvEI7TWuqZBgZ+tmff974lTO/oWrf07DQvLqnhbO859sOP0YEAS/syHh8EBKCAL/7vGNYW8u4eg8CUnfj4lP/27aHHIYgUG46UWjQk9J4kvqms5bffxjR1DrVRSBgGYbnCeInub+oE0979U254V9OaJhbvnddceILuq19nYKYEjnfPxDkNFLQlYVhl8TTTQKphn9qHghYII7I5LIfxhkPQ4X/kV2E8XTtj1pX//M1tNPARNuljfiNafFBMnI8HwEz+i6S8ZE5+XWKb98FWHuiVPNA6CoWsJiLJz57qAU27OnWhsaHjDhZXUFK1tDXvLviIb1ojOAD/cy9oRVq7oeaK7Du4lP/WsJ8yY7nXLYcjLYf6tiybayUae0Zh8sc3+mS80V/6dOFuAra2akdVPMHWmseCORabMB8gy6pYgmGouEAbaNyreb5sfY6B9i28SXx9hP0pOGMgpycz1ME9RlLiK2VvtewJ7pZF4HQ11u63C4V3yCns5FETsaD9Sy8kGoaxopZKzaduSeMMhgyPn/N3VfjsuAYdjz3zedNV0JW6ZW7Lz9rmQ+rYaEuAgHP+u/Ej+l+QTfxbgunyBxBm0yOY949Y8V9X2SUesynTt1kfm7Jvd8wsq1XYNhPVBH3LDoztkav59dFommrbtKMZZsn4ZW5RzGpKuYJV02KD4yvvza07mM3XDb7jbpRHoqcdc09Y3Fm/VDT8aqgmAji2rnxrePFJuuQey87O/bcRJxiz0DqKhCoy9OXbfmUoWu34tnDw2Ifv6R5Aoleaad9B7wHeB9ei7594+LTfiAaavBnUj6f+cfcR6dDoTl4BmKS+6lbV0/3b6BUNteqFfp7H87qhbl3Xj7z5aCl9qW6CwQ2yczlm1fYmrEQQ2jZ6Uu8bGvb3VhTrIWVby5ouVdHa38oYdv6HbncpKFfG62ZrVn7oKJmXIwb03Noxcdb4yHne4FLfcJNK7ycqs2/54pp93If6ymv20AgI519zQP7mRl7ruZYl2SyLcNo0SgPubLRaQUuFphW6S+A/w/eNv29buu/BsHvSkX7jwN95/CUFbcNH1YcfrCm2x8Hr0/iFfKPYLVyMD7ZO4o2wfyPXUtOBx5iA/NbS5tW7O15EQ9YLyuVuu7ZnD93J7XVY6rrQJANNnP5fRdgvbgQ64f3wcptuBGNZjkUZGzXEfREEZ4PwFRiaKUCbic6+jOW4TyvW9bfML28AX7BvQDdzuAt5OG4wTkKc86++AzfAaaZ+aAIMCDS6+hiwcoyI44X0uF8ujpAwhvR+nNYzCy+98qzHwxrVp+1hgkEz3z6WVff8xFcSo5BfRrm5OONXA77ENiQEp+hDweGX4Nz8BK92NihYRxh4mYuRPIMXb5SFX9QoEs/kTh3a/5fOut1jET02Fyxv7cf0bLFNvXNRsH+zT35zz3vIzZAodECIWbSzy/fMhFRcDpG6Q48yzAKrsOKXRz0TQXhU/rj+tdzbIxLAIhiuAbCX2JFAeHY+Bin3g1ZXRgldmB18JDuZDfffdWZTwdcGq/k9rPx9FZqTPN5S+/wka3ZzIiCXdjXNI0PwXUfRhTsDye+H0TvQ2zsg7kCX4DBQ27MRTrj8QgkHi8Ut49xaWr8DePCDvzA2fOOqf8JZ/yzlmm+im3CXdoQbedm9zsQzKWh8/8Hr5LfqE7nhnMAAAAASUVORK5CYII=;" vertex="1" parent="1">
          <mxGeometry x="220" y="440" width="41.94" height="40" as="geometry" />
        </mxCell>
        <mxCell id="u0ZUq6SkKT7h-yAJdBjN-34" style="edgeStyle=orthogonalEdgeStyle;rounded=0;orthogonalLoop=1;jettySize=auto;html=1;exitX=0.5;exitY=0;exitDx=0;exitDy=0;entryX=0;entryY=0.5;entryDx=0;entryDy=0;endArrow=none;endFill=0;strokeWidth=2;" edge="1" parent="1" source="u0ZUq6SkKT7h-yAJdBjN-5" target="u0ZUq6SkKT7h-yAJdBjN-2">
          <mxGeometry relative="1" as="geometry" />
        </mxCell>
        <mxCell id="u0ZUq6SkKT7h-yAJdBjN-5" value="" style="shape=image;verticalLabelPosition=bottom;labelBackgroundColor=default;verticalAlign=top;aspect=fixed;imageAspect=0;image=data:image/png,iVBORw0KGgoAAAANSUhEUgAAAIIAAAB8CAYAAAClm2iUAAAAAXNSR0IArs4c6QAAAHhlWElmTU0AKgAAAAgABAEaAAUAAAABAAAAPgEbAAUAAAABAAAARgEoAAMAAAABAAIAAIdpAAQAAAABAAAATgAAAAAAAACQAAAAAQAAAJAAAAABAAOgAQADAAAAAQABAACgAgAEAAAAAQAAAIKgAwAEAAAAAQAAAHwAAAAAw/uRTQAAAAlwSFlzAAAWJQAAFiUBSVIk8AAAH1dJREFUeAHtXQm8HEWZ72Nm3nu5nkGju/jjh6KwQhRE8ZeEhJAXIsgpVwKamxDigqyLhBC5dlbIbRIOFwSEhEg4EoIYUTkkBBVFV111RdzV5VACcgXCu2emu/f/VffXXd1dPTP98sjMxKmkX1V99V31fV9XVVcfo2tIy7/9K4dyTo4TqjJY5MktEtpA6cvQSdz9YhTd0arSLpFeNESZ+tjxAkurTMKYYR4haGUmYWLUBL3HJG3fmRmLzRAgyfEhRZkymjOnKJz4KmA+qAydjyMVouhpOx6lF6yVQEmoVOS+VCZhTIkYxRC0MpMwMdXAwOWRtucBq0SxaBCBEKCyMBmiKCdyrEBfhk4hBQEahqY1QZRecFMCw3K4xuJFzhVu9PPEhsD5KWT6bFGQ5abtO/GpKFZCcEcEWXq0LCHHmqIAuV6GTkbjchQ9TcejtIKnEsjS4rnvThT8cgytipaUcmURTJqm70zPtFyP5RUQYiOCYFCGKNkUoCxDF1VMhZrWADEeMUBUarjOfSlPxlhhWqr5LeUZxAk9iEyWtu9Cvq+AQoTMXNHMIEZzA4Fr3OrliXIS8CPkflWFnrbjMR4xgC9OWeC+lCdjrDgLv6U8gzihB5HJ0vadWMj0SiEVEcrzCI0IfmeVkqrRJiBU6ZXWAD4PUkxPKZ/QWR2/wAA5T270W3xFZLrKZSJzeficKhNFMBJFJzYEDKpA8ZGT1wgpuKhQB+x0Vi3KtIwt5aYoGbNzcxkzoaU8gzCRVGOytP2WWCSf9cxcRo6Uq0CJUISrZacGF5VORW2Lrmu2TGqHatQSBggqmSBSjrpE4MssjEocAokO6Bib80CcLCncGrTYPn1QCDgkleyAga+AXiUDQQq9Q10OCZKYw/iqpJKvwkOEteq6frK/TeBFjQO+DAtNDSomumFo40Z+4uyODr2kam/C6t8C+bt++R5LK75ml1wX+iEmDSOxQJDa3B4C8MR7/2DUf3ebGiZZoKvUb7RghPUDQIHorhEUGLsz1ynkNEG1toB6dvEvJdxAKBsrte5BU/6gWSA23PNVjRbfYh40oU1G9WUBaWUZnwAi9xoUAYNlLcierq8+NbVJbwEHU4MbAPEwIG7qNYIcEUlzS3pdmhQ1tQAFQDwI2NXuVQPXaqpoU/g7ZYFhYNyPGIi6WQ4LNxDeKQ2afOvSAnIAsIKhQJAROHp0AA9h7GbesBYg38r+jXbEXSN4UHZ+GKkceRizWWtAC3hOdwMh5OtQJXXPrvrWkyc6pj5Pc3R5G13wCdadsaaq5LBmyFtKvYWLlp/b8eeqCJtI7gIhcqbLVWlqYDNHrQb46CgsuW6Y+oFmLneaLd2V4hsbgYT0O9akNFEZmaxWKvRe0AyCZB9EW7oAMAPjxxaNhO8Fgosl4fpLTFojpEq6blu4uWHZVioyRpajlGEiR4OuG5pj9U6+evqkx0NtzUplC8CPatu6DvamBlToVqcas7IQCcPCjVVdnLsSMKFI4pRiWQ+vEbdQBSLAJ189oxkECeasAuw63b1nzmWXLJga2PhVsBsoikqED/MLEncPhqmlL6PZn8zPmPgHqbVZrNoCNDm0SdhuEPihgEIQCBKaKHpYNL+ntT4tColc5VuXt6+CqCb+oanAcXo1y5qUn90MgkQ7VdHgbzEnmD4UCLLj+DY0LdCC1X5liWKNCCKZl0+lBPqtohCg4P65bb+hO/2HLZl9zI4wVrOW2gJ0oaYIAvazCAQ7sH5q/kqCssNBQJEklp6Ksm3rJUPLTbhm9oRmEAQm260SO13FJDQiqBDSwyj01GNIkuNlGbQwxEjwgm1ohy+dPuZNua1ZHqgFhmEwUDxpKI0QiRf05DQ+0t6GFmsEid7nU0U/KGqzb2YOXT79qGYQVGGvVChipAYF5xJxKBDYYZQHKVQJwEklbB9Iz0AkYSXC6dKz/12FrRde//2WRKRmQzoLdAM9wY10MUCHCAQOAJ87Azj3Gwa3wErQGoUP2ojCxtHRQ9uHPTK40prc2N5yzlYJRgR2OuWhpJ7vQyhVVmQFyPEkKSqNWBGemclOXLzhicfym57OVcm+iZZkgaGuTaPNbH/K3UCIOZ8IgyPKoFLdXSO4Qw45lc92WXAiD0+wXSpCOWNyf+/r2xNxmw1VW0C2PZd9Ytg8GBEA3R3n+0xRsMCIhVFeMSkEEx0FkG5mxi1e/6NHz7v5l9mKfJoIagvQGkFOsr2pjKReI8hEg132BHPUiekCMuTAkcMId7A0bDBOeXdr108HW5W/G36YGtjeIld0PDQiKNoHByRFoJnJQRfrTuw2PEPv3gVJDoUASiWbLkOMzBGXrn/i4XBLszYYFiDLJwYCL+xoeE6dJMdTBPouhuOLxcLa5bMnzWpry0xAQPS4sRDIiJC6gQwFLAvXpYZx7ML1TzRHhtQOCQh8XwDEZTJyKBB4UUe5jyRKAaNKJd7SZnrmZJgmDU9Xr5gz8cukQ37akTtLWWd/PMDyHO1EUgDQiR/QBWWWiR1HLWOa4xbd8aPvMqyZV2cBtqvAJmPLB4AiEDgAqmNZDRaLpRxuxmlv28XLls+eeJVMvfrzHa+3Oc4nSprdFZ4mZKxwmd7oNTT9pIXrHn8q3NKsJVsAt6Ejjo/iJt9rIEJKXuZW0v0lFjT0l0rW/FXndHxTRZ2f2/HWwg1Pfkizi09hI+mDNCX5STBALQKiacI0MmMWfnP797527qQTffwBFvJ3/+wUCDkT50WRWLji7NC3C2KsgYTRrgXT2/VLpk/8Ray9AQCSWRXPI8iOEEaR0Sv3zsLcgJuHIgAJGzP7PATB7eUovzZr/KuLbvvJYXam9ILu6CPZFURDH8FQJdyd1MysecLC2594atXcieMw6qRTVGIKEYdnMrmZxWK/BFUXffMgwqHbrUtmNFYQqIxEJ5+7RqDe4VBdyqnNUR5KwnAUS7pzwqrZR5cNAua0ct6EzmyhdDDOsL/wmsE3OiP5uSuBLi3x2v+YS27f/n2/aQAFOvfdtUyY2DOLO6oiWhyxiIHRDKx3bPuyJTPGnxemqN+a5xPXx+xrLyetRSAwUtANhnAetFQq4Sl23bGwpWQap6yePekHlfDl9qXzp7zS3auPdhz7NTGnyI1iwI7rA1xcWWY+c8m6bT/L5x9PnupCvNSVkOOFKPxhoJBPdLqGh3OXXjNjwjI1lzqEYkOJrwKTtHNHhJCRyQJB/8kOqZJjvGlltTGrZh71UCo6D/nGCzq6slbbx+DgHcGlZaAElcSBP+wj8UkYxxjbtZ+WKvB8/aSz3WfqdZxluFUseh179pKZEy73aRu4ENiSpwapM9xxBhFymrRqzlEbVs+Y9J9paKK4S+ePfeXt4vCDEAwvYZM5CFNf8ygFXXrSyGBOufi2bU8O5BY295P7zzlLwk0wEnLZ0plHbWBYI+a+CbmDlCO5UwPKVFddx9eqs7csOKKnYNmf0B37FfGlMldfoQ7N59F/1GAVsR2tG0e2DGmtal3CfRPPWXo2YJic07Aq3tXQnRO96UfeEpVR67JMzzALe0WcLyubsEaQUWpXvg5rBidb/BA2nV5wn8J13R/TiIIEB70Ag6uJV6yCfWUMJwVAsIPReH+F6mLEMTLj+z+YeSi/7vHGe2iGOhFNoqMAIvfWCFEMakQrH6MV7XsI9LVZx3XjNbqx2FXcRQs1Ujp2eLrAWa+PsNo/uvb8Kc+mUw/XDbLjUSYxfvLsQLfGEW3H9BrG9qlTp+LSoYGSwm4BKLZGQBM73+sjVdM+szjY5lk1t+NvvYUcNpvsF+JXE/ANNi7Q9rJT6BmTX3DE62nlY60YTzauXOidCqTAYGQeS8tksmMOOOGCHy7c8DDd12uIRH2gFPQlKBHcHRE859PmDccB54RUD+mm8496s9UZOgbX8p2iC1CQL4nskrUjY3T/09rzT0o5Eng9o0iQ+GF4KOlGZrKhGxMRYHj8N5BFdikWMTIYxiTdaX0MlA2yXuBplQMg7FV3jYA26mC9J7qacPTCB+AcOBxLSGzsQO0XLcc+cuW8z3bujv60pSRc6jgvW63ZQ5fOGv/7JbMm/BLrk6mIE1qF+mcTyaEgzJiZMYvWbd9+0aafyu+T7Y4aNaNVrBEoIqJHzfSLCV577md2lszcWMzq3VgY7tDa2w66bsGn/xJDTAWAq9Flx7J7C7Y2ZuXZ455h8pVzOx7AHul4+L0gYHTG4KBdxlKhSMWJ2c7CgPZMWEatcq8r4nkPLxBkx7thwMoRcr2lG86Z+Foxp+2Pm08da6cdKebx3dRRx3MSzxqOsf+ac47+a5TXynOP+YWjW2dgdMCWqXvLXMYxc9mJC2/f/tjCVfW5ZqCPaQkP4w9dKpNP6WEfnlqpL6ERQSATFAWOFqrWY/qP2VPeuP4Lx/5pMHSDc1+xcvaYZQiwJH6rZnc8aFjaBOxWYGRgS7nzbrFAIGey9q7c95Loaw2nEYwcT7q7eVgjEQi+07l/LjqRhLH30hoelrmJno2o1L2V8zuewgl1CgwpRga65BRnlbAULsFymaMvvu2xhntOgvoQGhHIEOR8OQDkciVD/T20rz5n8sPYZ5yEI7hn7Z1AuHrBl2JKlzWKHUQQi1HCmxpc17t/RSd4ZOC8UXq2h/RcPe/TPzE183icMWKWIIPSQ7m2ZX/22vnHbdtDalQtRt5iZudTLqfwiNB0vGybsuWV8yY9jqXjcbiULZBRS/19k9ecN3lrWaJaNob9HtPEDQRFAASRE6NpAjwLrF1wzCO4cjnJ0Z0z1iyY8nijGoZ8HXuQIzpkiLGvUXu4B/S+7gvHPboHxLwjImRfi0CQASRRHkXk8juiTZPpHrGAWAFG1gWy4NCI0HS6bJq9rFzBue6IIPc5GjXRuozbLO8dFgitEZoO3zucmqYXns9psHCnhjJBUGFESSO2iVsrC9BGQitWCWX8HFojsJ6y8wf+2ghza+b1YAHZpyp9Kq8RmpGgstteAZMHiIpTw17R42Yn/C0Bdj6NEPRoFY8UyqlBthsjyrBmuQEtAEfS6wpyor0FTqFAILAcJbS4MAJcpmnmDWgB1+nJzoytEegeezhF6+HWZq0RLEBf02qNKyq51g2EmPPDNPlpo93n9cLgZq1BLJBtae0TDpQcL08L1I3Q1BDtF9HRCPHFmx66Fg/x4lMHZRIe3Rm05PGKsYwBykl0e52KRMkOHCQDKlGUwLDkcE1JIICMZ3gFrlOjXE7mEG/pta0h+MoMupHcET8QfJTI6EDrBNPMfinG3idwWxy898MP+JcTGOMjAzyeeLFeQJmfj1Lh3SLVhkn4gQufk6IArSN9cpGq5yAzgNVCMspxkeUyleMRBHSKx8lYQkzvqAfw+h59jCwpQYFgjSBrEyGgD1KIFBEYVINShLRilcWqnFiJeCA0UZ67zcPrQFoLcL9lfeI84hAfX9EUdb+PqypEFHBHhAhQ0EUEBdWgpOJfDsZiBmL8gdBEdYnyoFfd6SjhnUZ8OgdvPBdw4C2mpOR1IK0FuN/MVk2vhgoaRVMqpxOTiBJRlvLI486FhOFhcdEVyjWhWlV/SDYf0efoq2JAqoBB1IHV0hIe08s8xK/GafqrpWLxX52+3tYbzz9W7zJ3jcBr9VdB2luh9yu9Dgg+xK9K4dxvyjnFLcgQCSmK7DWRD+R/jJaYywp4SpSR5k7rF974sKSvQqlEaUGDxGBAjpMdFXBNV6qGh/iFGHyAw+5pOeSWxZ/GG9bh9MUbHtm3aPf/Gb8b0UaGrybJfWf8OGUcwrgqMdXKFjwUCpSRFoiVkMSI4Nbpr9TioycXSD4d8tlejTOYozjLwCANDdNSLtNXzcNxSkYxO1YVBMTz6xce+xJOj3H0PYbE5PWb+094ZDn5cGnjEBceR5bP9qqCgIVT7qUy0hhF+ItJfSAK3lVDwExulMssr2qDy8ReuVa0viroBP7//JnO3Ms+TFHYubP3mX1GDvkNmj7O/ZbR1NZSQwVdpKkqR4cERhigLQ6RCdyySnfG8uk9pGCNwBhSnvSenIRStjigM1biKNNL4HRF6igOwQuUtq6/sD3f4V0GqVltzk8tgmqHbEgyHB8BFUMojyRFEwVA1UHg6S1OYbCW2SmkCeEyiaw7a+bzkBG9xmAfweMePWtVDJmxnEfp5LZqyrtLL2R4yiYZysWxK372Jp//d32Hc4RvG1f/MlwjTVU7mw0TMXKEHWOF8ghJqI0qPo9KiB6lGBHkOT7GsQxAnGUQNFAn7i69OFuoo54O1HnfAEl668aBlb7H+PQhh2SwD3dg+DyUGLIgzoVc92yvOgg8vVVnvCQpVmSyWIPQwdOYkSivMkWiPplqoM6WOe4WD6lT1XdPxIisgoavxB/64j7d4wD8cahBqrS/1Haanske4NCegkJY1c5mnpLuBFKwZMxQHiELt3GtHBLjRHIViXKNwA4b6BmromdYRCd1lTT1Dl8HYJIByxlRImNyH59pLfpFGMvZNv/aB49TCZ9/3dZp+GTOPTZ9HofUUPxT0fkwtrKsv6c36+DjSgVBRvKkg5uZTtiCeKmQGDmSy6hcjqCIqrhIOv/rPwBvEjfwtLv0wgIQn1YLldpxHnGI+OxOqfR93dSXWcXCXw2z5UDsyOfx1ffxeKO5ekMoFIhLU7NTkArEEH0SkpqlD62KTEISU0NaJ6bF97XjgqdAqMPcViZnvSl6DfoSKlKcB0EII95C+DLYaGk7Qc9kTshh+UhnvmXhUzi4VDKNhN8RIwUirGUpdE8myTasu9BB+iPT88kgNVdVTOIdIi6DRH3nNQJOAbrfJb5+LEYJ0WOp024HQ2qH5FSseIqk5aDSHx++6rWLpRugrscu3Q1aFxt/6YZcmVsLok9lbtrJfYYmjm0402Gy/Qiu0pvxfRuUQ2LkhLwqUoHE7vRyCMfIx1yphsOwRSBYht6hl/QW3DltMXWtFa97t2l2aYieMYcCbxg+XDUCcTIckTLM1rVhYDkCDPBpHp1+fXoYduFGwClD8f3BLP2kL4WT++1Dt8sURBxIIpfqoMd/Vx+6eokmJcTRum+96MRLo7i1rs9ds3UsOioCgXXx9RdOYaibi3se3rknMgw3DBOfHXaB4vwUdbTjO04gxqkAfrhJhszphrk7kXcBpxum7MQVD34Rx6BfxaE3GvC1OeA4VLY6Ae/B9156M6bWW7KMPl23wETvF4FwywXH/ySs4u7VLlqzqa176KihWn9fu14qjsRY246dnHbD0PeBwu3oTzt8PlJ3nJEYh0YgANrRiXchhoZrjo5x2THQCQPKI/ZopMLTDvR9XUfcpadb9v3gA5vpznk3f3eI3eNchvBLMbHL/fPHBxmoLAsfQBtOpAMMbzqd7desz3f06fg+I/rQAx+xt5Dj65U6vr4E7yEocB65bfimUR9gu3TT2UXOww8h74Kb3wLyLvR7l2M6b+LhlE7L0d6ydGtX1s4hL+5qG5HtumXByT2sw2DlPDUMFj/BZ+2Xp9GXzuio+F0ileB83jGe19bnhoz6QMbRu7OOnstqvYUsfJ3tw+IAX1w2KAiIdt+XT+p7sf27JyPYDlXxCsGC09MH8wMkcFBi4pOZfq9DTjTq4Wtsv0IQXEFw27Tn23YulzH6So5tFvENjeLQIZlisau/pPW1Fd/ESbg5P60uH/sr13+5z3Vdnr/mO1/CBsG1+HpJXE/2otTix4MEixYVZD4K09OzDFZ/36R1i05/wm9s0II00DVoD6C2PvT9N2LawCgcPjB00+ojdkR7GiETbBjHpyde3sFycNm5w+nZ9XPGbeR8rwgE/LYDXfddKV9SkgPLJdn5UTzZ+ez0KI5b13+0Pj83+LqaGqkhoHtFIJClezKd1+ORs7dVASA7ncvsHdnp0TOecVS5+EUXzbkDbSqRKpK6hu01gXDnhdM78ajuI5gohMHZ4ZTLyXc8gOT48me8TBmU6WKBgm7dwlMfDqCNXdprAoGuIizbvJamB3Z+1OkhxzNSBf/JscJl+nljXMt+tQJpQzXvNYFAVr9j0WefLPYXfkc7WgNxOnuOHZ4UK9hK7u/VMjQt7DVprwoE8oplavNo76naJDudyzFabuDctn87fPhLsQdfY3QNBKjeYg3SKfPtnb93rNL/RtUlH1JiX3LuQr2/VSDRtIAPbG65ZcGCSncpQqzrvdI4gYAV2qzV9x80d/UDG89ZvdU5Z9W38yrj4nKuz3b0e+lne9nZsn9VND4iNTKyh0g7EfI/3cQe8svWDUo+EnBq/ukcmLkrVwler8W6V3Tu9ZtGOf3ZCzDvn5nJ5kbTbWK63St29UqlbZbRP2vDl6ftkA1MPwDa2V/EXr43DHBjxMkMppycnZS4xcCWMj68vWnDpaeflYRL8FkrNl+JNxX/DcZ9EndN7vzWJWfeWg6/HtrqNhDOu/nmbOnt9y7Gj2h9lQwlFn8qi4mTTj913SWnfEdunrvyO1fj/sMVDn5VPnqWB3jJ7mfnB7h0ExC3thzn8PWLTqNH3WNpzsrv/QN+DWgbfqv6YPHSKZiIe2W23WXp9oziAc6Dm6dNoxtQdZfqcmqYu+r+ucXO9z1n5Fq+SgHgHq4/6aR2T2xdM3NtNF//FG/sv0fL50N9KTilm7FWwG1Z16Xy8B6UXX8QRvSIeYr0sK0Xiz3dz0bbZi29/90zlt1/h2X3/Z+umwfT7zbwACPufxj6sKyZe6D1OfMX01duGR+lr4d6XY0INKR3Ffo2ZLJt00rFfvahwk64ies4z+B1/em3X3zybxUIFC367FXffhTn5Fj3zm8Yyw2PMCxWE0guJn6j2sDaY8vGxafPjOEBMGPZfWfgxvlqBMD+qnaWRyOEZdtz7/rKGetVeLWC1U0gwLH6nNVbf477y5+idYAqkRHx+1q7DN08HVPBNhWODJu3ZtM+Bau1XdPo1n/KFCGxMqau9/e+vjE/4+0kTlPzm3ItLfpUrA/WYysjuMXvjUpMZ5gZreQUv3nXpVPnM6zWeV0EQh7D+nNthz2IS7PjY7eSPSNi5xAntvNf+y/67RF5Pa+OlFpb05M/ffkDH9Pt4o/xvEI7TWuqZBgZ+tmff974lTO/oWrf07DQvLqnhbO859sOP0YEAS/syHh8EBKCAL/7vGNYW8u4eg8CUnfj4lP/27aHHIYgUG46UWjQk9J4kvqms5bffxjR1DrVRSBgGYbnCeInub+oE0979U254V9OaJhbvnddceILuq19nYKYEjnfPxDkNFLQlYVhl8TTTQKphn9qHghYII7I5LIfxhkPQ4X/kV2E8XTtj1pX//M1tNPARNuljfiNafFBMnI8HwEz+i6S8ZE5+XWKb98FWHuiVPNA6CoWsJiLJz57qAU27OnWhsaHjDhZXUFK1tDXvLviIb1ojOAD/cy9oRVq7oeaK7Du4lP/WsJ8yY7nXLYcjLYf6tiybayUae0Zh8sc3+mS80V/6dOFuAra2akdVPMHWmseCORabMB8gy6pYgmGouEAbaNyreb5sfY6B9i28SXx9hP0pOGMgpycz1ME9RlLiK2VvtewJ7pZF4HQ11u63C4V3yCns5FETsaD9Sy8kGoaxopZKzaduSeMMhgyPn/N3VfjsuAYdjz3zedNV0JW6ZW7Lz9rmQ+rYaEuAgHP+u/Ej+l+QTfxbgunyBxBm0yOY949Y8V9X2SUesynTt1kfm7Jvd8wsq1XYNhPVBH3LDoztkav59dFommrbtKMZZsn4ZW5RzGpKuYJV02KD4yvvza07mM3XDb7jbpRHoqcdc09Y3Fm/VDT8aqgmAji2rnxrePFJuuQey87O/bcRJxiz0DqKhCoy9OXbfmUoWu34tnDw2Ifv6R5Aoleaad9B7wHeB9ei7594+LTfiAaavBnUj6f+cfcR6dDoTl4BmKS+6lbV0/3b6BUNteqFfp7H87qhbl3Xj7z5aCl9qW6CwQ2yczlm1fYmrEQQ2jZ6Uu8bGvb3VhTrIWVby5ouVdHa38oYdv6HbncpKFfG62ZrVn7oKJmXIwb03Noxcdb4yHne4FLfcJNK7ycqs2/54pp93If6ymv20AgI519zQP7mRl7ruZYl2SyLcNo0SgPubLRaQUuFphW6S+A/w/eNv29buu/BsHvSkX7jwN95/CUFbcNH1YcfrCm2x8Hr0/iFfKPYLVyMD7ZO4o2wfyPXUtOBx5iA/NbS5tW7O15EQ9YLyuVuu7ZnD93J7XVY6rrQJANNnP5fRdgvbgQ64f3wcptuBGNZjkUZGzXEfREEZ4PwFRiaKUCbic6+jOW4TyvW9bfML28AX7BvQDdzuAt5OG4wTkKc86++AzfAaaZ+aAIMCDS6+hiwcoyI44X0uF8ujpAwhvR+nNYzCy+98qzHwxrVp+1hgkEz3z6WVff8xFcSo5BfRrm5OONXA77ENiQEp+hDweGX4Nz8BK92NihYRxh4mYuRPIMXb5SFX9QoEs/kTh3a/5fOut1jET02Fyxv7cf0bLFNvXNRsH+zT35zz3vIzZAodECIWbSzy/fMhFRcDpG6Q48yzAKrsOKXRz0TQXhU/rj+tdzbIxLAIhiuAbCX2JFAeHY+Bin3g1ZXRgldmB18JDuZDfffdWZTwdcGq/k9rPx9FZqTPN5S+/wka3ZzIiCXdjXNI0PwXUfRhTsDye+H0TvQ2zsg7kCX4DBQ27MRTrj8QgkHi8Ut49xaWr8DePCDvzA2fOOqf8JZ/yzlmm+im3CXdoQbedm9zsQzKWh8/8Hr5LfqE7nhnMAAAAASUVORK5CYII=;" vertex="1" parent="1">
          <mxGeometry x="280" y="440" width="41.94" height="40" as="geometry" />
        </mxCell>
        <mxCell id="u0ZUq6SkKT7h-yAJdBjN-14" style="edgeStyle=orthogonalEdgeStyle;rounded=0;orthogonalLoop=1;jettySize=auto;html=1;exitX=0.5;exitY=0;exitDx=0;exitDy=0;entryX=0.5;entryY=1;entryDx=0;entryDy=0;endArrow=none;endFill=0;strokeWidth=2;" edge="1" parent="1" source="u0ZUq6SkKT7h-yAJdBjN-6" target="u0ZUq6SkKT7h-yAJdBjN-2">
          <mxGeometry relative="1" as="geometry" />
        </mxCell>
        <mxCell id="u0ZUq6SkKT7h-yAJdBjN-6" value="" style="shape=image;verticalLabelPosition=bottom;labelBackgroundColor=default;verticalAlign=top;aspect=fixed;imageAspect=0;image=data:image/png,iVBORw0KGgoAAAANSUhEUgAAAIIAAAB8CAYAAAClm2iUAAAAAXNSR0IArs4c6QAAAHhlWElmTU0AKgAAAAgABAEaAAUAAAABAAAAPgEbAAUAAAABAAAARgEoAAMAAAABAAIAAIdpAAQAAAABAAAATgAAAAAAAACQAAAAAQAAAJAAAAABAAOgAQADAAAAAQABAACgAgAEAAAAAQAAAIKgAwAEAAAAAQAAAHwAAAAAw/uRTQAAAAlwSFlzAAAWJQAAFiUBSVIk8AAAH1dJREFUeAHtXQm8HEWZ72Nm3nu5nkGju/jjh6KwQhRE8ZeEhJAXIsgpVwKamxDigqyLhBC5dlbIbRIOFwSEhEg4EoIYUTkkBBVFV111RdzV5VACcgXCu2emu/f/VffXXd1dPTP98sjMxKmkX1V99V31fV9XVVcfo2tIy7/9K4dyTo4TqjJY5MktEtpA6cvQSdz9YhTd0arSLpFeNESZ+tjxAkurTMKYYR4haGUmYWLUBL3HJG3fmRmLzRAgyfEhRZkymjOnKJz4KmA+qAydjyMVouhpOx6lF6yVQEmoVOS+VCZhTIkYxRC0MpMwMdXAwOWRtucBq0SxaBCBEKCyMBmiKCdyrEBfhk4hBQEahqY1QZRecFMCw3K4xuJFzhVu9PPEhsD5KWT6bFGQ5abtO/GpKFZCcEcEWXq0LCHHmqIAuV6GTkbjchQ9TcejtIKnEsjS4rnvThT8cgytipaUcmURTJqm70zPtFyP5RUQYiOCYFCGKNkUoCxDF1VMhZrWADEeMUBUarjOfSlPxlhhWqr5LeUZxAk9iEyWtu9Cvq+AQoTMXNHMIEZzA4Fr3OrliXIS8CPkflWFnrbjMR4xgC9OWeC+lCdjrDgLv6U8gzihB5HJ0vadWMj0SiEVEcrzCI0IfmeVkqrRJiBU6ZXWAD4PUkxPKZ/QWR2/wAA5T270W3xFZLrKZSJzeficKhNFMBJFJzYEDKpA8ZGT1wgpuKhQB+x0Vi3KtIwt5aYoGbNzcxkzoaU8gzCRVGOytP2WWCSf9cxcRo6Uq0CJUISrZacGF5VORW2Lrmu2TGqHatQSBggqmSBSjrpE4MssjEocAokO6Bib80CcLCncGrTYPn1QCDgkleyAga+AXiUDQQq9Q10OCZKYw/iqpJKvwkOEteq6frK/TeBFjQO+DAtNDSomumFo40Z+4uyODr2kam/C6t8C+bt++R5LK75ml1wX+iEmDSOxQJDa3B4C8MR7/2DUf3ebGiZZoKvUb7RghPUDQIHorhEUGLsz1ynkNEG1toB6dvEvJdxAKBsrte5BU/6gWSA23PNVjRbfYh40oU1G9WUBaWUZnwAi9xoUAYNlLcierq8+NbVJbwEHU4MbAPEwIG7qNYIcEUlzS3pdmhQ1tQAFQDwI2NXuVQPXaqpoU/g7ZYFhYNyPGIi6WQ4LNxDeKQ2afOvSAnIAsIKhQJAROHp0AA9h7GbesBYg38r+jXbEXSN4UHZ+GKkceRizWWtAC3hOdwMh5OtQJXXPrvrWkyc6pj5Pc3R5G13wCdadsaaq5LBmyFtKvYWLlp/b8eeqCJtI7gIhcqbLVWlqYDNHrQb46CgsuW6Y+oFmLneaLd2V4hsbgYT0O9akNFEZmaxWKvRe0AyCZB9EW7oAMAPjxxaNhO8Fgosl4fpLTFojpEq6blu4uWHZVioyRpajlGEiR4OuG5pj9U6+evqkx0NtzUplC8CPatu6DvamBlToVqcas7IQCcPCjVVdnLsSMKFI4pRiWQ+vEbdQBSLAJ189oxkECeasAuw63b1nzmWXLJga2PhVsBsoikqED/MLEncPhqmlL6PZn8zPmPgHqbVZrNoCNDm0SdhuEPihgEIQCBKaKHpYNL+ntT4tColc5VuXt6+CqCb+oanAcXo1y5qUn90MgkQ7VdHgbzEnmD4UCLLj+DY0LdCC1X5liWKNCCKZl0+lBPqtohCg4P65bb+hO/2HLZl9zI4wVrOW2gJ0oaYIAvazCAQ7sH5q/kqCssNBQJEklp6Ksm3rJUPLTbhm9oRmEAQm260SO13FJDQiqBDSwyj01GNIkuNlGbQwxEjwgm1ohy+dPuZNua1ZHqgFhmEwUDxpKI0QiRf05DQ+0t6GFmsEid7nU0U/KGqzb2YOXT79qGYQVGGvVChipAYF5xJxKBDYYZQHKVQJwEklbB9Iz0AkYSXC6dKz/12FrRde//2WRKRmQzoLdAM9wY10MUCHCAQOAJ87Azj3Gwa3wErQGoUP2ojCxtHRQ9uHPTK40prc2N5yzlYJRgR2OuWhpJ7vQyhVVmQFyPEkKSqNWBGemclOXLzhicfym57OVcm+iZZkgaGuTaPNbH/K3UCIOZ8IgyPKoFLdXSO4Qw45lc92WXAiD0+wXSpCOWNyf+/r2xNxmw1VW0C2PZd9Ytg8GBEA3R3n+0xRsMCIhVFeMSkEEx0FkG5mxi1e/6NHz7v5l9mKfJoIagvQGkFOsr2pjKReI8hEg132BHPUiekCMuTAkcMId7A0bDBOeXdr108HW5W/G36YGtjeIld0PDQiKNoHByRFoJnJQRfrTuw2PEPv3gVJDoUASiWbLkOMzBGXrn/i4XBLszYYFiDLJwYCL+xoeE6dJMdTBPouhuOLxcLa5bMnzWpry0xAQPS4sRDIiJC6gQwFLAvXpYZx7ML1TzRHhtQOCQh8XwDEZTJyKBB4UUe5jyRKAaNKJd7SZnrmZJgmDU9Xr5gz8cukQ37akTtLWWd/PMDyHO1EUgDQiR/QBWWWiR1HLWOa4xbd8aPvMqyZV2cBtqvAJmPLB4AiEDgAqmNZDRaLpRxuxmlv28XLls+eeJVMvfrzHa+3Oc4nSprdFZ4mZKxwmd7oNTT9pIXrHn8q3NKsJVsAt6Ejjo/iJt9rIEJKXuZW0v0lFjT0l0rW/FXndHxTRZ2f2/HWwg1Pfkizi09hI+mDNCX5STBALQKiacI0MmMWfnP797527qQTffwBFvJ3/+wUCDkT50WRWLji7NC3C2KsgYTRrgXT2/VLpk/8Ray9AQCSWRXPI8iOEEaR0Sv3zsLcgJuHIgAJGzP7PATB7eUovzZr/KuLbvvJYXam9ILu6CPZFURDH8FQJdyd1MysecLC2594atXcieMw6qRTVGIKEYdnMrmZxWK/BFUXffMgwqHbrUtmNFYQqIxEJ5+7RqDe4VBdyqnNUR5KwnAUS7pzwqrZR5cNAua0ct6EzmyhdDDOsL/wmsE3OiP5uSuBLi3x2v+YS27f/n2/aQAFOvfdtUyY2DOLO6oiWhyxiIHRDKx3bPuyJTPGnxemqN+a5xPXx+xrLyetRSAwUtANhnAetFQq4Sl23bGwpWQap6yePekHlfDl9qXzp7zS3auPdhz7NTGnyI1iwI7rA1xcWWY+c8m6bT/L5x9PnupCvNSVkOOFKPxhoJBPdLqGh3OXXjNjwjI1lzqEYkOJrwKTtHNHhJCRyQJB/8kOqZJjvGlltTGrZh71UCo6D/nGCzq6slbbx+DgHcGlZaAElcSBP+wj8UkYxxjbtZ+WKvB8/aSz3WfqdZxluFUseh179pKZEy73aRu4ENiSpwapM9xxBhFymrRqzlEbVs+Y9J9paKK4S+ePfeXt4vCDEAwvYZM5CFNf8ygFXXrSyGBOufi2bU8O5BY295P7zzlLwk0wEnLZ0plHbWBYI+a+CbmDlCO5UwPKVFddx9eqs7csOKKnYNmf0B37FfGlMldfoQ7N59F/1GAVsR2tG0e2DGmtal3CfRPPWXo2YJic07Aq3tXQnRO96UfeEpVR67JMzzALe0WcLyubsEaQUWpXvg5rBidb/BA2nV5wn8J13R/TiIIEB70Ag6uJV6yCfWUMJwVAsIPReH+F6mLEMTLj+z+YeSi/7vHGe2iGOhFNoqMAIvfWCFEMakQrH6MV7XsI9LVZx3XjNbqx2FXcRQs1Ujp2eLrAWa+PsNo/uvb8Kc+mUw/XDbLjUSYxfvLsQLfGEW3H9BrG9qlTp+LSoYGSwm4BKLZGQBM73+sjVdM+szjY5lk1t+NvvYUcNpvsF+JXE/ANNi7Q9rJT6BmTX3DE62nlY60YTzauXOidCqTAYGQeS8tksmMOOOGCHy7c8DDd12uIRH2gFPQlKBHcHRE859PmDccB54RUD+mm8496s9UZOgbX8p2iC1CQL4nskrUjY3T/09rzT0o5Eng9o0iQ+GF4KOlGZrKhGxMRYHj8N5BFdikWMTIYxiTdaX0MlA2yXuBplQMg7FV3jYA26mC9J7qacPTCB+AcOBxLSGzsQO0XLcc+cuW8z3bujv60pSRc6jgvW63ZQ5fOGv/7JbMm/BLrk6mIE1qF+mcTyaEgzJiZMYvWbd9+0aafyu+T7Y4aNaNVrBEoIqJHzfSLCV577md2lszcWMzq3VgY7tDa2w66bsGn/xJDTAWAq9Flx7J7C7Y2ZuXZ455h8pVzOx7AHul4+L0gYHTG4KBdxlKhSMWJ2c7CgPZMWEatcq8r4nkPLxBkx7thwMoRcr2lG86Z+Foxp+2Pm08da6cdKebx3dRRx3MSzxqOsf+ac47+a5TXynOP+YWjW2dgdMCWqXvLXMYxc9mJC2/f/tjCVfW5ZqCPaQkP4w9dKpNP6WEfnlqpL6ERQSATFAWOFqrWY/qP2VPeuP4Lx/5pMHSDc1+xcvaYZQiwJH6rZnc8aFjaBOxWYGRgS7nzbrFAIGey9q7c95Loaw2nEYwcT7q7eVgjEQi+07l/LjqRhLH30hoelrmJno2o1L2V8zuewgl1CgwpRga65BRnlbAULsFymaMvvu2xhntOgvoQGhHIEOR8OQDkciVD/T20rz5n8sPYZ5yEI7hn7Z1AuHrBl2JKlzWKHUQQi1HCmxpc17t/RSd4ZOC8UXq2h/RcPe/TPzE183icMWKWIIPSQ7m2ZX/22vnHbdtDalQtRt5iZudTLqfwiNB0vGybsuWV8yY9jqXjcbiULZBRS/19k9ecN3lrWaJaNob9HtPEDQRFAASRE6NpAjwLrF1wzCO4cjnJ0Z0z1iyY8nijGoZ8HXuQIzpkiLGvUXu4B/S+7gvHPboHxLwjImRfi0CQASRRHkXk8juiTZPpHrGAWAFG1gWy4NCI0HS6bJq9rFzBue6IIPc5GjXRuozbLO8dFgitEZoO3zucmqYXns9psHCnhjJBUGFESSO2iVsrC9BGQitWCWX8HFojsJ6y8wf+2ghza+b1YAHZpyp9Kq8RmpGgstteAZMHiIpTw17R42Yn/C0Bdj6NEPRoFY8UyqlBthsjyrBmuQEtAEfS6wpyor0FTqFAILAcJbS4MAJcpmnmDWgB1+nJzoytEegeezhF6+HWZq0RLEBf02qNKyq51g2EmPPDNPlpo93n9cLgZq1BLJBtae0TDpQcL08L1I3Q1BDtF9HRCPHFmx66Fg/x4lMHZRIe3Rm05PGKsYwBykl0e52KRMkOHCQDKlGUwLDkcE1JIICMZ3gFrlOjXE7mEG/pta0h+MoMupHcET8QfJTI6EDrBNPMfinG3idwWxy898MP+JcTGOMjAzyeeLFeQJmfj1Lh3SLVhkn4gQufk6IArSN9cpGq5yAzgNVCMspxkeUyleMRBHSKx8lYQkzvqAfw+h59jCwpQYFgjSBrEyGgD1KIFBEYVINShLRilcWqnFiJeCA0UZ67zcPrQFoLcL9lfeI84hAfX9EUdb+PqypEFHBHhAhQ0EUEBdWgpOJfDsZiBmL8gdBEdYnyoFfd6SjhnUZ8OgdvPBdw4C2mpOR1IK0FuN/MVk2vhgoaRVMqpxOTiBJRlvLI486FhOFhcdEVyjWhWlV/SDYf0efoq2JAqoBB1IHV0hIe08s8xK/GafqrpWLxX52+3tYbzz9W7zJ3jcBr9VdB2luh9yu9Dgg+xK9K4dxvyjnFLcgQCSmK7DWRD+R/jJaYywp4SpSR5k7rF974sKSvQqlEaUGDxGBAjpMdFXBNV6qGh/iFGHyAw+5pOeSWxZ/GG9bh9MUbHtm3aPf/Gb8b0UaGrybJfWf8OGUcwrgqMdXKFjwUCpSRFoiVkMSI4Nbpr9TioycXSD4d8tlejTOYozjLwCANDdNSLtNXzcNxSkYxO1YVBMTz6xce+xJOj3H0PYbE5PWb+094ZDn5cGnjEBceR5bP9qqCgIVT7qUy0hhF+ItJfSAK3lVDwExulMssr2qDy8ReuVa0viroBP7//JnO3Ms+TFHYubP3mX1GDvkNmj7O/ZbR1NZSQwVdpKkqR4cERhigLQ6RCdyySnfG8uk9pGCNwBhSnvSenIRStjigM1biKNNL4HRF6igOwQuUtq6/sD3f4V0GqVltzk8tgmqHbEgyHB8BFUMojyRFEwVA1UHg6S1OYbCW2SmkCeEyiaw7a+bzkBG9xmAfweMePWtVDJmxnEfp5LZqyrtLL2R4yiYZysWxK372Jp//d32Hc4RvG1f/MlwjTVU7mw0TMXKEHWOF8ghJqI0qPo9KiB6lGBHkOT7GsQxAnGUQNFAn7i69OFuoo54O1HnfAEl668aBlb7H+PQhh2SwD3dg+DyUGLIgzoVc92yvOgg8vVVnvCQpVmSyWIPQwdOYkSivMkWiPplqoM6WOe4WD6lT1XdPxIisgoavxB/64j7d4wD8cahBqrS/1Haanske4NCegkJY1c5mnpLuBFKwZMxQHiELt3GtHBLjRHIViXKNwA4b6BmromdYRCd1lTT1Dl8HYJIByxlRImNyH59pLfpFGMvZNv/aB49TCZ9/3dZp+GTOPTZ9HofUUPxT0fkwtrKsv6c36+DjSgVBRvKkg5uZTtiCeKmQGDmSy6hcjqCIqrhIOv/rPwBvEjfwtLv0wgIQn1YLldpxHnGI+OxOqfR93dSXWcXCXw2z5UDsyOfx1ffxeKO5ekMoFIhLU7NTkArEEH0SkpqlD62KTEISU0NaJ6bF97XjgqdAqMPcViZnvSl6DfoSKlKcB0EII95C+DLYaGk7Qc9kTshh+UhnvmXhUzi4VDKNhN8RIwUirGUpdE8myTasu9BB+iPT88kgNVdVTOIdIi6DRH3nNQJOAbrfJb5+LEYJ0WOp024HQ2qH5FSseIqk5aDSHx++6rWLpRugrscu3Q1aFxt/6YZcmVsLok9lbtrJfYYmjm0402Gy/Qiu0pvxfRuUQ2LkhLwqUoHE7vRyCMfIx1yphsOwRSBYht6hl/QW3DltMXWtFa97t2l2aYieMYcCbxg+XDUCcTIckTLM1rVhYDkCDPBpHp1+fXoYduFGwClD8f3BLP2kL4WT++1Dt8sURBxIIpfqoMd/Vx+6eokmJcTRum+96MRLo7i1rs9ds3UsOioCgXXx9RdOYaibi3se3rknMgw3DBOfHXaB4vwUdbTjO04gxqkAfrhJhszphrk7kXcBpxum7MQVD34Rx6BfxaE3GvC1OeA4VLY6Ae/B9156M6bWW7KMPl23wETvF4FwywXH/ySs4u7VLlqzqa176KihWn9fu14qjsRY246dnHbD0PeBwu3oTzt8PlJ3nJEYh0YgANrRiXchhoZrjo5x2THQCQPKI/ZopMLTDvR9XUfcpadb9v3gA5vpznk3f3eI3eNchvBLMbHL/fPHBxmoLAsfQBtOpAMMbzqd7desz3f06fg+I/rQAx+xt5Dj65U6vr4E7yEocB65bfimUR9gu3TT2UXOww8h74Kb3wLyLvR7l2M6b+LhlE7L0d6ydGtX1s4hL+5qG5HtumXByT2sw2DlPDUMFj/BZ+2Xp9GXzuio+F0ileB83jGe19bnhoz6QMbRu7OOnstqvYUsfJ3tw+IAX1w2KAiIdt+XT+p7sf27JyPYDlXxCsGC09MH8wMkcFBi4pOZfq9DTjTq4Wtsv0IQXEFw27Tn23YulzH6So5tFvENjeLQIZlisau/pPW1Fd/ESbg5P60uH/sr13+5z3Vdnr/mO1/CBsG1+HpJXE/2otTix4MEixYVZD4K09OzDFZ/36R1i05/wm9s0II00DVoD6C2PvT9N2LawCgcPjB00+ojdkR7GiETbBjHpyde3sFycNm5w+nZ9XPGbeR8rwgE/LYDXfddKV9SkgPLJdn5UTzZ+ez0KI5b13+0Pj83+LqaGqkhoHtFIJClezKd1+ORs7dVASA7ncvsHdnp0TOecVS5+EUXzbkDbSqRKpK6hu01gXDnhdM78ajuI5gohMHZ4ZTLyXc8gOT48me8TBmU6WKBgm7dwlMfDqCNXdprAoGuIizbvJamB3Z+1OkhxzNSBf/JscJl+nljXMt+tQJpQzXvNYFAVr9j0WefLPYXfkc7WgNxOnuOHZ4UK9hK7u/VMjQt7DVprwoE8oplavNo76naJDudyzFabuDctn87fPhLsQdfY3QNBKjeYg3SKfPtnb93rNL/RtUlH1JiX3LuQr2/VSDRtIAPbG65ZcGCSncpQqzrvdI4gYAV2qzV9x80d/UDG89ZvdU5Z9W38yrj4nKuz3b0e+lne9nZsn9VND4iNTKyh0g7EfI/3cQe8svWDUo+EnBq/ukcmLkrVwler8W6V3Tu9ZtGOf3ZCzDvn5nJ5kbTbWK63St29UqlbZbRP2vDl6ftkA1MPwDa2V/EXr43DHBjxMkMppycnZS4xcCWMj68vWnDpaeflYRL8FkrNl+JNxX/DcZ9EndN7vzWJWfeWg6/HtrqNhDOu/nmbOnt9y7Gj2h9lQwlFn8qi4mTTj913SWnfEdunrvyO1fj/sMVDn5VPnqWB3jJ7mfnB7h0ExC3thzn8PWLTqNH3WNpzsrv/QN+DWgbfqv6YPHSKZiIe2W23WXp9oziAc6Dm6dNoxtQdZfqcmqYu+r+ucXO9z1n5Fq+SgHgHq4/6aR2T2xdM3NtNF//FG/sv0fL50N9KTilm7FWwG1Z16Xy8B6UXX8QRvSIeYr0sK0Xiz3dz0bbZi29/90zlt1/h2X3/Z+umwfT7zbwACPufxj6sKyZe6D1OfMX01duGR+lr4d6XY0INKR3Ffo2ZLJt00rFfvahwk64ies4z+B1/em3X3zybxUIFC367FXffhTn5Fj3zm8Yyw2PMCxWE0guJn6j2sDaY8vGxafPjOEBMGPZfWfgxvlqBMD+qnaWRyOEZdtz7/rKGetVeLWC1U0gwLH6nNVbf477y5+idYAqkRHx+1q7DN08HVPBNhWODJu3ZtM+Bau1XdPo1n/KFCGxMqau9/e+vjE/4+0kTlPzm3ItLfpUrA/WYysjuMXvjUpMZ5gZreQUv3nXpVPnM6zWeV0EQh7D+nNthz2IS7PjY7eSPSNi5xAntvNf+y/67RF5Pa+OlFpb05M/ffkDH9Pt4o/xvEI7TWuqZBgZ+tmff974lTO/oWrf07DQvLqnhbO859sOP0YEAS/syHh8EBKCAL/7vGNYW8u4eg8CUnfj4lP/27aHHIYgUG46UWjQk9J4kvqms5bffxjR1DrVRSBgGYbnCeInub+oE0979U254V9OaJhbvnddceILuq19nYKYEjnfPxDkNFLQlYVhl8TTTQKphn9qHghYII7I5LIfxhkPQ4X/kV2E8XTtj1pX//M1tNPARNuljfiNafFBMnI8HwEz+i6S8ZE5+XWKb98FWHuiVPNA6CoWsJiLJz57qAU27OnWhsaHjDhZXUFK1tDXvLviIb1ojOAD/cy9oRVq7oeaK7Du4lP/WsJ8yY7nXLYcjLYf6tiybayUae0Zh8sc3+mS80V/6dOFuAra2akdVPMHWmseCORabMB8gy6pYgmGouEAbaNyreb5sfY6B9i28SXx9hP0pOGMgpycz1ME9RlLiK2VvtewJ7pZF4HQ11u63C4V3yCns5FETsaD9Sy8kGoaxopZKzaduSeMMhgyPn/N3VfjsuAYdjz3zedNV0JW6ZW7Lz9rmQ+rYaEuAgHP+u/Ej+l+QTfxbgunyBxBm0yOY949Y8V9X2SUesynTt1kfm7Jvd8wsq1XYNhPVBH3LDoztkav59dFommrbtKMZZsn4ZW5RzGpKuYJV02KD4yvvza07mM3XDb7jbpRHoqcdc09Y3Fm/VDT8aqgmAji2rnxrePFJuuQey87O/bcRJxiz0DqKhCoy9OXbfmUoWu34tnDw2Ifv6R5Aoleaad9B7wHeB9ei7594+LTfiAaavBnUj6f+cfcR6dDoTl4BmKS+6lbV0/3b6BUNteqFfp7H87qhbl3Xj7z5aCl9qW6CwQ2yczlm1fYmrEQQ2jZ6Uu8bGvb3VhTrIWVby5ouVdHa38oYdv6HbncpKFfG62ZrVn7oKJmXIwb03Noxcdb4yHne4FLfcJNK7ycqs2/54pp93If6ymv20AgI519zQP7mRl7ruZYl2SyLcNo0SgPubLRaQUuFphW6S+A/w/eNv29buu/BsHvSkX7jwN95/CUFbcNH1YcfrCm2x8Hr0/iFfKPYLVyMD7ZO4o2wfyPXUtOBx5iA/NbS5tW7O15EQ9YLyuVuu7ZnD93J7XVY6rrQJANNnP5fRdgvbgQ64f3wcptuBGNZjkUZGzXEfREEZ4PwFRiaKUCbic6+jOW4TyvW9bfML28AX7BvQDdzuAt5OG4wTkKc86++AzfAaaZ+aAIMCDS6+hiwcoyI44X0uF8ujpAwhvR+nNYzCy+98qzHwxrVp+1hgkEz3z6WVff8xFcSo5BfRrm5OONXA77ENiQEp+hDweGX4Nz8BK92NihYRxh4mYuRPIMXb5SFX9QoEs/kTh3a/5fOut1jET02Fyxv7cf0bLFNvXNRsH+zT35zz3vIzZAodECIWbSzy/fMhFRcDpG6Q48yzAKrsOKXRz0TQXhU/rj+tdzbIxLAIhiuAbCX2JFAeHY+Bin3g1ZXRgldmB18JDuZDfffdWZTwdcGq/k9rPx9FZqTPN5S+/wka3ZzIiCXdjXNI0PwXUfRhTsDye+H0TvQ2zsg7kCX4DBQ27MRTrj8QgkHi8Ut49xaWr8DePCDvzA2fOOqf8JZ/yzlmm+im3CXdoQbedm9zsQzKWh8/8Hr5LfqE7nhnMAAAAASUVORK5CYII=;" vertex="1" parent="1">
          <mxGeometry x="382.71000000000004" y="440" width="41.94" height="40" as="geometry" />
        </mxCell>
        <mxCell id="u0ZUq6SkKT7h-yAJdBjN-15" style="edgeStyle=orthogonalEdgeStyle;rounded=0;orthogonalLoop=1;jettySize=auto;html=1;exitX=0.5;exitY=0;exitDx=0;exitDy=0;entryX=0.5;entryY=1;entryDx=0;entryDy=0;endArrow=none;endFill=0;strokeWidth=2;" edge="1" parent="1" source="u0ZUq6SkKT7h-yAJdBjN-7" target="u0ZUq6SkKT7h-yAJdBjN-3">
          <mxGeometry relative="1" as="geometry" />
        </mxCell>
        <mxCell id="u0ZUq6SkKT7h-yAJdBjN-7" value="" style="shape=image;verticalLabelPosition=bottom;labelBackgroundColor=default;verticalAlign=top;aspect=fixed;imageAspect=0;image=data:image/png,iVBORw0KGgoAAAANSUhEUgAAAIIAAAB8CAYAAAClm2iUAAAAAXNSR0IArs4c6QAAAHhlWElmTU0AKgAAAAgABAEaAAUAAAABAAAAPgEbAAUAAAABAAAARgEoAAMAAAABAAIAAIdpAAQAAAABAAAATgAAAAAAAACQAAAAAQAAAJAAAAABAAOgAQADAAAAAQABAACgAgAEAAAAAQAAAIKgAwAEAAAAAQAAAHwAAAAAw/uRTQAAAAlwSFlzAAAWJQAAFiUBSVIk8AAAH1dJREFUeAHtXQm8HEWZ72Nm3nu5nkGju/jjh6KwQhRE8ZeEhJAXIsgpVwKamxDigqyLhBC5dlbIbRIOFwSEhEg4EoIYUTkkBBVFV111RdzV5VACcgXCu2emu/f/VffXXd1dPTP98sjMxKmkX1V99V31fV9XVVcfo2tIy7/9K4dyTo4TqjJY5MktEtpA6cvQSdz9YhTd0arSLpFeNESZ+tjxAkurTMKYYR4haGUmYWLUBL3HJG3fmRmLzRAgyfEhRZkymjOnKJz4KmA+qAydjyMVouhpOx6lF6yVQEmoVOS+VCZhTIkYxRC0MpMwMdXAwOWRtucBq0SxaBCBEKCyMBmiKCdyrEBfhk4hBQEahqY1QZRecFMCw3K4xuJFzhVu9PPEhsD5KWT6bFGQ5abtO/GpKFZCcEcEWXq0LCHHmqIAuV6GTkbjchQ9TcejtIKnEsjS4rnvThT8cgytipaUcmURTJqm70zPtFyP5RUQYiOCYFCGKNkUoCxDF1VMhZrWADEeMUBUarjOfSlPxlhhWqr5LeUZxAk9iEyWtu9Cvq+AQoTMXNHMIEZzA4Fr3OrliXIS8CPkflWFnrbjMR4xgC9OWeC+lCdjrDgLv6U8gzihB5HJ0vadWMj0SiEVEcrzCI0IfmeVkqrRJiBU6ZXWAD4PUkxPKZ/QWR2/wAA5T270W3xFZLrKZSJzeficKhNFMBJFJzYEDKpA8ZGT1wgpuKhQB+x0Vi3KtIwt5aYoGbNzcxkzoaU8gzCRVGOytP2WWCSf9cxcRo6Uq0CJUISrZacGF5VORW2Lrmu2TGqHatQSBggqmSBSjrpE4MssjEocAokO6Bib80CcLCncGrTYPn1QCDgkleyAga+AXiUDQQq9Q10OCZKYw/iqpJKvwkOEteq6frK/TeBFjQO+DAtNDSomumFo40Z+4uyODr2kam/C6t8C+bt++R5LK75ml1wX+iEmDSOxQJDa3B4C8MR7/2DUf3ebGiZZoKvUb7RghPUDQIHorhEUGLsz1ynkNEG1toB6dvEvJdxAKBsrte5BU/6gWSA23PNVjRbfYh40oU1G9WUBaWUZnwAi9xoUAYNlLcierq8+NbVJbwEHU4MbAPEwIG7qNYIcEUlzS3pdmhQ1tQAFQDwI2NXuVQPXaqpoU/g7ZYFhYNyPGIi6WQ4LNxDeKQ2afOvSAnIAsIKhQJAROHp0AA9h7GbesBYg38r+jXbEXSN4UHZ+GKkceRizWWtAC3hOdwMh5OtQJXXPrvrWkyc6pj5Pc3R5G13wCdadsaaq5LBmyFtKvYWLlp/b8eeqCJtI7gIhcqbLVWlqYDNHrQb46CgsuW6Y+oFmLneaLd2V4hsbgYT0O9akNFEZmaxWKvRe0AyCZB9EW7oAMAPjxxaNhO8Fgosl4fpLTFojpEq6blu4uWHZVioyRpajlGEiR4OuG5pj9U6+evqkx0NtzUplC8CPatu6DvamBlToVqcas7IQCcPCjVVdnLsSMKFI4pRiWQ+vEbdQBSLAJ189oxkECeasAuw63b1nzmWXLJga2PhVsBsoikqED/MLEncPhqmlL6PZn8zPmPgHqbVZrNoCNDm0SdhuEPihgEIQCBKaKHpYNL+ntT4tColc5VuXt6+CqCb+oanAcXo1y5qUn90MgkQ7VdHgbzEnmD4UCLLj+DY0LdCC1X5liWKNCCKZl0+lBPqtohCg4P65bb+hO/2HLZl9zI4wVrOW2gJ0oaYIAvazCAQ7sH5q/kqCssNBQJEklp6Ksm3rJUPLTbhm9oRmEAQm260SO13FJDQiqBDSwyj01GNIkuNlGbQwxEjwgm1ohy+dPuZNua1ZHqgFhmEwUDxpKI0QiRf05DQ+0t6GFmsEid7nU0U/KGqzb2YOXT79qGYQVGGvVChipAYF5xJxKBDYYZQHKVQJwEklbB9Iz0AkYSXC6dKz/12FrRde//2WRKRmQzoLdAM9wY10MUCHCAQOAJ87Azj3Gwa3wErQGoUP2ojCxtHRQ9uHPTK40prc2N5yzlYJRgR2OuWhpJ7vQyhVVmQFyPEkKSqNWBGemclOXLzhicfym57OVcm+iZZkgaGuTaPNbH/K3UCIOZ8IgyPKoFLdXSO4Qw45lc92WXAiD0+wXSpCOWNyf+/r2xNxmw1VW0C2PZd9Ytg8GBEA3R3n+0xRsMCIhVFeMSkEEx0FkG5mxi1e/6NHz7v5l9mKfJoIagvQGkFOsr2pjKReI8hEg132BHPUiekCMuTAkcMId7A0bDBOeXdr108HW5W/G36YGtjeIld0PDQiKNoHByRFoJnJQRfrTuw2PEPv3gVJDoUASiWbLkOMzBGXrn/i4XBLszYYFiDLJwYCL+xoeE6dJMdTBPouhuOLxcLa5bMnzWpry0xAQPS4sRDIiJC6gQwFLAvXpYZx7ML1TzRHhtQOCQh8XwDEZTJyKBB4UUe5jyRKAaNKJd7SZnrmZJgmDU9Xr5gz8cukQ37akTtLWWd/PMDyHO1EUgDQiR/QBWWWiR1HLWOa4xbd8aPvMqyZV2cBtqvAJmPLB4AiEDgAqmNZDRaLpRxuxmlv28XLls+eeJVMvfrzHa+3Oc4nSprdFZ4mZKxwmd7oNTT9pIXrHn8q3NKsJVsAt6Ejjo/iJt9rIEJKXuZW0v0lFjT0l0rW/FXndHxTRZ2f2/HWwg1Pfkizi09hI+mDNCX5STBALQKiacI0MmMWfnP797527qQTffwBFvJ3/+wUCDkT50WRWLji7NC3C2KsgYTRrgXT2/VLpk/8Ray9AQCSWRXPI8iOEEaR0Sv3zsLcgJuHIgAJGzP7PATB7eUovzZr/KuLbvvJYXam9ILu6CPZFURDH8FQJdyd1MysecLC2594atXcieMw6qRTVGIKEYdnMrmZxWK/BFUXffMgwqHbrUtmNFYQqIxEJ5+7RqDe4VBdyqnNUR5KwnAUS7pzwqrZR5cNAua0ct6EzmyhdDDOsL/wmsE3OiP5uSuBLi3x2v+YS27f/n2/aQAFOvfdtUyY2DOLO6oiWhyxiIHRDKx3bPuyJTPGnxemqN+a5xPXx+xrLyetRSAwUtANhnAetFQq4Sl23bGwpWQap6yePekHlfDl9qXzp7zS3auPdhz7NTGnyI1iwI7rA1xcWWY+c8m6bT/L5x9PnupCvNSVkOOFKPxhoJBPdLqGh3OXXjNjwjI1lzqEYkOJrwKTtHNHhJCRyQJB/8kOqZJjvGlltTGrZh71UCo6D/nGCzq6slbbx+DgHcGlZaAElcSBP+wj8UkYxxjbtZ+WKvB8/aSz3WfqdZxluFUseh179pKZEy73aRu4ENiSpwapM9xxBhFymrRqzlEbVs+Y9J9paKK4S+ePfeXt4vCDEAwvYZM5CFNf8ygFXXrSyGBOufi2bU8O5BY295P7zzlLwk0wEnLZ0plHbWBYI+a+CbmDlCO5UwPKVFddx9eqs7csOKKnYNmf0B37FfGlMldfoQ7N59F/1GAVsR2tG0e2DGmtal3CfRPPWXo2YJic07Aq3tXQnRO96UfeEpVR67JMzzALe0WcLyubsEaQUWpXvg5rBidb/BA2nV5wn8J13R/TiIIEB70Ag6uJV6yCfWUMJwVAsIPReH+F6mLEMTLj+z+YeSi/7vHGe2iGOhFNoqMAIvfWCFEMakQrH6MV7XsI9LVZx3XjNbqx2FXcRQs1Ujp2eLrAWa+PsNo/uvb8Kc+mUw/XDbLjUSYxfvLsQLfGEW3H9BrG9qlTp+LSoYGSwm4BKLZGQBM73+sjVdM+szjY5lk1t+NvvYUcNpvsF+JXE/ANNi7Q9rJT6BmTX3DE62nlY60YTzauXOidCqTAYGQeS8tksmMOOOGCHy7c8DDd12uIRH2gFPQlKBHcHRE859PmDccB54RUD+mm8496s9UZOgbX8p2iC1CQL4nskrUjY3T/09rzT0o5Eng9o0iQ+GF4KOlGZrKhGxMRYHj8N5BFdikWMTIYxiTdaX0MlA2yXuBplQMg7FV3jYA26mC9J7qacPTCB+AcOBxLSGzsQO0XLcc+cuW8z3bujv60pSRc6jgvW63ZQ5fOGv/7JbMm/BLrk6mIE1qF+mcTyaEgzJiZMYvWbd9+0aafyu+T7Y4aNaNVrBEoIqJHzfSLCV577md2lszcWMzq3VgY7tDa2w66bsGn/xJDTAWAq9Flx7J7C7Y2ZuXZ455h8pVzOx7AHul4+L0gYHTG4KBdxlKhSMWJ2c7CgPZMWEatcq8r4nkPLxBkx7thwMoRcr2lG86Z+Foxp+2Pm08da6cdKebx3dRRx3MSzxqOsf+ac47+a5TXynOP+YWjW2dgdMCWqXvLXMYxc9mJC2/f/tjCVfW5ZqCPaQkP4w9dKpNP6WEfnlqpL6ERQSATFAWOFqrWY/qP2VPeuP4Lx/5pMHSDc1+xcvaYZQiwJH6rZnc8aFjaBOxWYGRgS7nzbrFAIGey9q7c95Loaw2nEYwcT7q7eVgjEQi+07l/LjqRhLH30hoelrmJno2o1L2V8zuewgl1CgwpRga65BRnlbAULsFymaMvvu2xhntOgvoQGhHIEOR8OQDkciVD/T20rz5n8sPYZ5yEI7hn7Z1AuHrBl2JKlzWKHUQQi1HCmxpc17t/RSd4ZOC8UXq2h/RcPe/TPzE183icMWKWIIPSQ7m2ZX/22vnHbdtDalQtRt5iZudTLqfwiNB0vGybsuWV8yY9jqXjcbiULZBRS/19k9ecN3lrWaJaNob9HtPEDQRFAASRE6NpAjwLrF1wzCO4cjnJ0Z0z1iyY8nijGoZ8HXuQIzpkiLGvUXu4B/S+7gvHPboHxLwjImRfi0CQASRRHkXk8juiTZPpHrGAWAFG1gWy4NCI0HS6bJq9rFzBue6IIPc5GjXRuozbLO8dFgitEZoO3zucmqYXns9psHCnhjJBUGFESSO2iVsrC9BGQitWCWX8HFojsJ6y8wf+2ghza+b1YAHZpyp9Kq8RmpGgstteAZMHiIpTw17R42Yn/C0Bdj6NEPRoFY8UyqlBthsjyrBmuQEtAEfS6wpyor0FTqFAILAcJbS4MAJcpmnmDWgB1+nJzoytEegeezhF6+HWZq0RLEBf02qNKyq51g2EmPPDNPlpo93n9cLgZq1BLJBtae0TDpQcL08L1I3Q1BDtF9HRCPHFmx66Fg/x4lMHZRIe3Rm05PGKsYwBykl0e52KRMkOHCQDKlGUwLDkcE1JIICMZ3gFrlOjXE7mEG/pta0h+MoMupHcET8QfJTI6EDrBNPMfinG3idwWxy898MP+JcTGOMjAzyeeLFeQJmfj1Lh3SLVhkn4gQufk6IArSN9cpGq5yAzgNVCMspxkeUyleMRBHSKx8lYQkzvqAfw+h59jCwpQYFgjSBrEyGgD1KIFBEYVINShLRilcWqnFiJeCA0UZ67zcPrQFoLcL9lfeI84hAfX9EUdb+PqypEFHBHhAhQ0EUEBdWgpOJfDsZiBmL8gdBEdYnyoFfd6SjhnUZ8OgdvPBdw4C2mpOR1IK0FuN/MVk2vhgoaRVMqpxOTiBJRlvLI486FhOFhcdEVyjWhWlV/SDYf0efoq2JAqoBB1IHV0hIe08s8xK/GafqrpWLxX52+3tYbzz9W7zJ3jcBr9VdB2luh9yu9Dgg+xK9K4dxvyjnFLcgQCSmK7DWRD+R/jJaYywp4SpSR5k7rF974sKSvQqlEaUGDxGBAjpMdFXBNV6qGh/iFGHyAw+5pOeSWxZ/GG9bh9MUbHtm3aPf/Gb8b0UaGrybJfWf8OGUcwrgqMdXKFjwUCpSRFoiVkMSI4Nbpr9TioycXSD4d8tlejTOYozjLwCANDdNSLtNXzcNxSkYxO1YVBMTz6xce+xJOj3H0PYbE5PWb+094ZDn5cGnjEBceR5bP9qqCgIVT7qUy0hhF+ItJfSAK3lVDwExulMssr2qDy8ReuVa0viroBP7//JnO3Ms+TFHYubP3mX1GDvkNmj7O/ZbR1NZSQwVdpKkqR4cERhigLQ6RCdyySnfG8uk9pGCNwBhSnvSenIRStjigM1biKNNL4HRF6igOwQuUtq6/sD3f4V0GqVltzk8tgmqHbEgyHB8BFUMojyRFEwVA1UHg6S1OYbCW2SmkCeEyiaw7a+bzkBG9xmAfweMePWtVDJmxnEfp5LZqyrtLL2R4yiYZysWxK372Jp//d32Hc4RvG1f/MlwjTVU7mw0TMXKEHWOF8ghJqI0qPo9KiB6lGBHkOT7GsQxAnGUQNFAn7i69OFuoo54O1HnfAEl668aBlb7H+PQhh2SwD3dg+DyUGLIgzoVc92yvOgg8vVVnvCQpVmSyWIPQwdOYkSivMkWiPplqoM6WOe4WD6lT1XdPxIisgoavxB/64j7d4wD8cahBqrS/1Haanske4NCegkJY1c5mnpLuBFKwZMxQHiELt3GtHBLjRHIViXKNwA4b6BmromdYRCd1lTT1Dl8HYJIByxlRImNyH59pLfpFGMvZNv/aB49TCZ9/3dZp+GTOPTZ9HofUUPxT0fkwtrKsv6c36+DjSgVBRvKkg5uZTtiCeKmQGDmSy6hcjqCIqrhIOv/rPwBvEjfwtLv0wgIQn1YLldpxHnGI+OxOqfR93dSXWcXCXw2z5UDsyOfx1ffxeKO5ekMoFIhLU7NTkArEEH0SkpqlD62KTEISU0NaJ6bF97XjgqdAqMPcViZnvSl6DfoSKlKcB0EII95C+DLYaGk7Qc9kTshh+UhnvmXhUzi4VDKNhN8RIwUirGUpdE8myTasu9BB+iPT88kgNVdVTOIdIi6DRH3nNQJOAbrfJb5+LEYJ0WOp024HQ2qH5FSseIqk5aDSHx++6rWLpRugrscu3Q1aFxt/6YZcmVsLok9lbtrJfYYmjm0402Gy/Qiu0pvxfRuUQ2LkhLwqUoHE7vRyCMfIx1yphsOwRSBYht6hl/QW3DltMXWtFa97t2l2aYieMYcCbxg+XDUCcTIckTLM1rVhYDkCDPBpHp1+fXoYduFGwClD8f3BLP2kL4WT++1Dt8sURBxIIpfqoMd/Vx+6eokmJcTRum+96MRLo7i1rs9ds3UsOioCgXXx9RdOYaibi3se3rknMgw3DBOfHXaB4vwUdbTjO04gxqkAfrhJhszphrk7kXcBpxum7MQVD34Rx6BfxaE3GvC1OeA4VLY6Ae/B9156M6bWW7KMPl23wETvF4FwywXH/ySs4u7VLlqzqa176KihWn9fu14qjsRY246dnHbD0PeBwu3oTzt8PlJ3nJEYh0YgANrRiXchhoZrjo5x2THQCQPKI/ZopMLTDvR9XUfcpadb9v3gA5vpznk3f3eI3eNchvBLMbHL/fPHBxmoLAsfQBtOpAMMbzqd7desz3f06fg+I/rQAx+xt5Dj65U6vr4E7yEocB65bfimUR9gu3TT2UXOww8h74Kb3wLyLvR7l2M6b+LhlE7L0d6ydGtX1s4hL+5qG5HtumXByT2sw2DlPDUMFj/BZ+2Xp9GXzuio+F0ileB83jGe19bnhoz6QMbRu7OOnstqvYUsfJ3tw+IAX1w2KAiIdt+XT+p7sf27JyPYDlXxCsGC09MH8wMkcFBi4pOZfq9DTjTq4Wtsv0IQXEFw27Tn23YulzH6So5tFvENjeLQIZlisau/pPW1Fd/ESbg5P60uH/sr13+5z3Vdnr/mO1/CBsG1+HpJXE/2otTix4MEixYVZD4K09OzDFZ/36R1i05/wm9s0II00DVoD6C2PvT9N2LawCgcPjB00+ojdkR7GiETbBjHpyde3sFycNm5w+nZ9XPGbeR8rwgE/LYDXfddKV9SkgPLJdn5UTzZ+ez0KI5b13+0Pj83+LqaGqkhoHtFIJClezKd1+ORs7dVASA7ncvsHdnp0TOecVS5+EUXzbkDbSqRKpK6hu01gXDnhdM78ajuI5gohMHZ4ZTLyXc8gOT48me8TBmU6WKBgm7dwlMfDqCNXdprAoGuIizbvJamB3Z+1OkhxzNSBf/JscJl+nljXMt+tQJpQzXvNYFAVr9j0WefLPYXfkc7WgNxOnuOHZ4UK9hK7u/VMjQt7DVprwoE8oplavNo76naJDudyzFabuDctn87fPhLsQdfY3QNBKjeYg3SKfPtnb93rNL/RtUlH1JiX3LuQr2/VSDRtIAPbG65ZcGCSncpQqzrvdI4gYAV2qzV9x80d/UDG89ZvdU5Z9W38yrj4nKuz3b0e+lne9nZsn9VND4iNTKyh0g7EfI/3cQe8svWDUo+EnBq/ukcmLkrVwler8W6V3Tu9ZtGOf3ZCzDvn5nJ5kbTbWK63St29UqlbZbRP2vDl6ftkA1MPwDa2V/EXr43DHBjxMkMppycnZS4xcCWMj68vWnDpaeflYRL8FkrNl+JNxX/DcZ9EndN7vzWJWfeWg6/HtrqNhDOu/nmbOnt9y7Gj2h9lQwlFn8qi4mTTj913SWnfEdunrvyO1fj/sMVDn5VPnqWB3jJ7mfnB7h0ExC3thzn8PWLTqNH3WNpzsrv/QN+DWgbfqv6YPHSKZiIe2W23WXp9oziAc6Dm6dNoxtQdZfqcmqYu+r+ucXO9z1n5Fq+SgHgHq4/6aR2T2xdM3NtNF//FG/sv0fL50N9KTilm7FWwG1Z16Xy8B6UXX8QRvSIeYr0sK0Xiz3dz0bbZi29/90zlt1/h2X3/Z+umwfT7zbwACPufxj6sKyZe6D1OfMX01duGR+lr4d6XY0INKR3Ffo2ZLJt00rFfvahwk64ies4z+B1/em3X3zybxUIFC367FXffhTn5Fj3zm8Yyw2PMCxWE0guJn6j2sDaY8vGxafPjOEBMGPZfWfgxvlqBMD+qnaWRyOEZdtz7/rKGetVeLWC1U0gwLH6nNVbf477y5+idYAqkRHx+1q7DN08HVPBNhWODJu3ZtM+Bau1XdPo1n/KFCGxMqau9/e+vjE/4+0kTlPzm3ItLfpUrA/WYysjuMXvjUpMZ5gZreQUv3nXpVPnM6zWeV0EQh7D+nNthz2IS7PjY7eSPSNi5xAntvNf+y/67RF5Pa+OlFpb05M/ffkDH9Pt4o/xvEI7TWuqZBgZ+tmff974lTO/oWrf07DQvLqnhbO859sOP0YEAS/syHh8EBKCAL/7vGNYW8u4eg8CUnfj4lP/27aHHIYgUG46UWjQk9J4kvqms5bffxjR1DrVRSBgGYbnCeInub+oE0979U254V9OaJhbvnddceILuq19nYKYEjnfPxDkNFLQlYVhl8TTTQKphn9qHghYII7I5LIfxhkPQ4X/kV2E8XTtj1pX//M1tNPARNuljfiNafFBMnI8HwEz+i6S8ZE5+XWKb98FWHuiVPNA6CoWsJiLJz57qAU27OnWhsaHjDhZXUFK1tDXvLviIb1ojOAD/cy9oRVq7oeaK7Du4lP/WsJ8yY7nXLYcjLYf6tiybayUae0Zh8sc3+mS80V/6dOFuAra2akdVPMHWmseCORabMB8gy6pYgmGouEAbaNyreb5sfY6B9i28SXx9hP0pOGMgpycz1ME9RlLiK2VvtewJ7pZF4HQ11u63C4V3yCns5FETsaD9Sy8kGoaxopZKzaduSeMMhgyPn/N3VfjsuAYdjz3zedNV0JW6ZW7Lz9rmQ+rYaEuAgHP+u/Ej+l+QTfxbgunyBxBm0yOY949Y8V9X2SUesynTt1kfm7Jvd8wsq1XYNhPVBH3LDoztkav59dFommrbtKMZZsn4ZW5RzGpKuYJV02KD4yvvza07mM3XDb7jbpRHoqcdc09Y3Fm/VDT8aqgmAji2rnxrePFJuuQey87O/bcRJxiz0DqKhCoy9OXbfmUoWu34tnDw2Ifv6R5Aoleaad9B7wHeB9ei7594+LTfiAaavBnUj6f+cfcR6dDoTl4BmKS+6lbV0/3b6BUNteqFfp7H87qhbl3Xj7z5aCl9qW6CwQ2yczlm1fYmrEQQ2jZ6Uu8bGvb3VhTrIWVby5ouVdHa38oYdv6HbncpKFfG62ZrVn7oKJmXIwb03Noxcdb4yHne4FLfcJNK7ycqs2/54pp93If6ymv20AgI519zQP7mRl7ruZYl2SyLcNo0SgPubLRaQUuFphW6S+A/w/eNv29buu/BsHvSkX7jwN95/CUFbcNH1YcfrCm2x8Hr0/iFfKPYLVyMD7ZO4o2wfyPXUtOBx5iA/NbS5tW7O15EQ9YLyuVuu7ZnD93J7XVY6rrQJANNnP5fRdgvbgQ64f3wcptuBGNZjkUZGzXEfREEZ4PwFRiaKUCbic6+jOW4TyvW9bfML28AX7BvQDdzuAt5OG4wTkKc86++AzfAaaZ+aAIMCDS6+hiwcoyI44X0uF8ujpAwhvR+nNYzCy+98qzHwxrVp+1hgkEz3z6WVff8xFcSo5BfRrm5OONXA77ENiQEp+hDweGX4Nz8BK92NihYRxh4mYuRPIMXb5SFX9QoEs/kTh3a/5fOut1jET02Fyxv7cf0bLFNvXNRsH+zT35zz3vIzZAodECIWbSzy/fMhFRcDpG6Q48yzAKrsOKXRz0TQXhU/rj+tdzbIxLAIhiuAbCX2JFAeHY+Bin3g1ZXRgldmB18JDuZDfffdWZTwdcGq/k9rPx9FZqTPN5S+/wka3ZzIiCXdjXNI0PwXUfRhTsDye+H0TvQ2zsg7kCX4DBQ27MRTrj8QgkHi8Ut49xaWr8DePCDvzA2fOOqf8JZ/yzlmm+im3CXdoQbedm9zsQzKWh8/8Hr5LfqE7nhnMAAAAASUVORK5CYII=;" vertex="1" parent="1">
          <mxGeometry x="512.52" y="440" width="41.94" height="40" as="geometry" />
        </mxCell>
        <mxCell id="u0ZUq6SkKT7h-yAJdBjN-32" style="edgeStyle=orthogonalEdgeStyle;rounded=0;orthogonalLoop=1;jettySize=auto;html=1;exitX=0.5;exitY=0;exitDx=0;exitDy=0;entryX=1;entryY=0.5;entryDx=0;entryDy=0;endArrow=none;endFill=0;strokeWidth=2;" edge="1" parent="1" source="u0ZUq6SkKT7h-yAJdBjN-8" target="u0ZUq6SkKT7h-yAJdBjN-3">
          <mxGeometry relative="1" as="geometry" />
        </mxCell>
        <mxCell id="u0ZUq6SkKT7h-yAJdBjN-8" value="" style="shape=image;verticalLabelPosition=bottom;labelBackgroundColor=default;verticalAlign=top;aspect=fixed;imageAspect=0;image=data:image/png,iVBORw0KGgoAAAANSUhEUgAAAIIAAAB8CAYAAAClm2iUAAAAAXNSR0IArs4c6QAAAHhlWElmTU0AKgAAAAgABAEaAAUAAAABAAAAPgEbAAUAAAABAAAARgEoAAMAAAABAAIAAIdpAAQAAAABAAAATgAAAAAAAACQAAAAAQAAAJAAAAABAAOgAQADAAAAAQABAACgAgAEAAAAAQAAAIKgAwAEAAAAAQAAAHwAAAAAw/uRTQAAAAlwSFlzAAAWJQAAFiUBSVIk8AAAH1dJREFUeAHtXQm8HEWZ72Nm3nu5nkGju/jjh6KwQhRE8ZeEhJAXIsgpVwKamxDigqyLhBC5dlbIbRIOFwSEhEg4EoIYUTkkBBVFV111RdzV5VACcgXCu2emu/f/VffXXd1dPTP98sjMxKmkX1V99V31fV9XVVcfo2tIy7/9K4dyTo4TqjJY5MktEtpA6cvQSdz9YhTd0arSLpFeNESZ+tjxAkurTMKYYR4haGUmYWLUBL3HJG3fmRmLzRAgyfEhRZkymjOnKJz4KmA+qAydjyMVouhpOx6lF6yVQEmoVOS+VCZhTIkYxRC0MpMwMdXAwOWRtucBq0SxaBCBEKCyMBmiKCdyrEBfhk4hBQEahqY1QZRecFMCw3K4xuJFzhVu9PPEhsD5KWT6bFGQ5abtO/GpKFZCcEcEWXq0LCHHmqIAuV6GTkbjchQ9TcejtIKnEsjS4rnvThT8cgytipaUcmURTJqm70zPtFyP5RUQYiOCYFCGKNkUoCxDF1VMhZrWADEeMUBUarjOfSlPxlhhWqr5LeUZxAk9iEyWtu9Cvq+AQoTMXNHMIEZzA4Fr3OrliXIS8CPkflWFnrbjMR4xgC9OWeC+lCdjrDgLv6U8gzihB5HJ0vadWMj0SiEVEcrzCI0IfmeVkqrRJiBU6ZXWAD4PUkxPKZ/QWR2/wAA5T270W3xFZLrKZSJzeficKhNFMBJFJzYEDKpA8ZGT1wgpuKhQB+x0Vi3KtIwt5aYoGbNzcxkzoaU8gzCRVGOytP2WWCSf9cxcRo6Uq0CJUISrZacGF5VORW2Lrmu2TGqHatQSBggqmSBSjrpE4MssjEocAokO6Bib80CcLCncGrTYPn1QCDgkleyAga+AXiUDQQq9Q10OCZKYw/iqpJKvwkOEteq6frK/TeBFjQO+DAtNDSomumFo40Z+4uyODr2kam/C6t8C+bt++R5LK75ml1wX+iEmDSOxQJDa3B4C8MR7/2DUf3ebGiZZoKvUb7RghPUDQIHorhEUGLsz1ynkNEG1toB6dvEvJdxAKBsrte5BU/6gWSA23PNVjRbfYh40oU1G9WUBaWUZnwAi9xoUAYNlLcierq8+NbVJbwEHU4MbAPEwIG7qNYIcEUlzS3pdmhQ1tQAFQDwI2NXuVQPXaqpoU/g7ZYFhYNyPGIi6WQ4LNxDeKQ2afOvSAnIAsIKhQJAROHp0AA9h7GbesBYg38r+jXbEXSN4UHZ+GKkceRizWWtAC3hOdwMh5OtQJXXPrvrWkyc6pj5Pc3R5G13wCdadsaaq5LBmyFtKvYWLlp/b8eeqCJtI7gIhcqbLVWlqYDNHrQb46CgsuW6Y+oFmLneaLd2V4hsbgYT0O9akNFEZmaxWKvRe0AyCZB9EW7oAMAPjxxaNhO8Fgosl4fpLTFojpEq6blu4uWHZVioyRpajlGEiR4OuG5pj9U6+evqkx0NtzUplC8CPatu6DvamBlToVqcas7IQCcPCjVVdnLsSMKFI4pRiWQ+vEbdQBSLAJ189oxkECeasAuw63b1nzmWXLJga2PhVsBsoikqED/MLEncPhqmlL6PZn8zPmPgHqbVZrNoCNDm0SdhuEPihgEIQCBKaKHpYNL+ntT4tColc5VuXt6+CqCb+oanAcXo1y5qUn90MgkQ7VdHgbzEnmD4UCLLj+DY0LdCC1X5liWKNCCKZl0+lBPqtohCg4P65bb+hO/2HLZl9zI4wVrOW2gJ0oaYIAvazCAQ7sH5q/kqCssNBQJEklp6Ksm3rJUPLTbhm9oRmEAQm260SO13FJDQiqBDSwyj01GNIkuNlGbQwxEjwgm1ohy+dPuZNua1ZHqgFhmEwUDxpKI0QiRf05DQ+0t6GFmsEid7nU0U/KGqzb2YOXT79qGYQVGGvVChipAYF5xJxKBDYYZQHKVQJwEklbB9Iz0AkYSXC6dKz/12FrRde//2WRKRmQzoLdAM9wY10MUCHCAQOAJ87Azj3Gwa3wErQGoUP2ojCxtHRQ9uHPTK40prc2N5yzlYJRgR2OuWhpJ7vQyhVVmQFyPEkKSqNWBGemclOXLzhicfym57OVcm+iZZkgaGuTaPNbH/K3UCIOZ8IgyPKoFLdXSO4Qw45lc92WXAiD0+wXSpCOWNyf+/r2xNxmw1VW0C2PZd9Ytg8GBEA3R3n+0xRsMCIhVFeMSkEEx0FkG5mxi1e/6NHz7v5l9mKfJoIagvQGkFOsr2pjKReI8hEg132BHPUiekCMuTAkcMId7A0bDBOeXdr108HW5W/G36YGtjeIld0PDQiKNoHByRFoJnJQRfrTuw2PEPv3gVJDoUASiWbLkOMzBGXrn/i4XBLszYYFiDLJwYCL+xoeE6dJMdTBPouhuOLxcLa5bMnzWpry0xAQPS4sRDIiJC6gQwFLAvXpYZx7ML1TzRHhtQOCQh8XwDEZTJyKBB4UUe5jyRKAaNKJd7SZnrmZJgmDU9Xr5gz8cukQ37akTtLWWd/PMDyHO1EUgDQiR/QBWWWiR1HLWOa4xbd8aPvMqyZV2cBtqvAJmPLB4AiEDgAqmNZDRaLpRxuxmlv28XLls+eeJVMvfrzHa+3Oc4nSprdFZ4mZKxwmd7oNTT9pIXrHn8q3NKsJVsAt6Ejjo/iJt9rIEJKXuZW0v0lFjT0l0rW/FXndHxTRZ2f2/HWwg1Pfkizi09hI+mDNCX5STBALQKiacI0MmMWfnP797527qQTffwBFvJ3/+wUCDkT50WRWLji7NC3C2KsgYTRrgXT2/VLpk/8Ray9AQCSWRXPI8iOEEaR0Sv3zsLcgJuHIgAJGzP7PATB7eUovzZr/KuLbvvJYXam9ILu6CPZFURDH8FQJdyd1MysecLC2594atXcieMw6qRTVGIKEYdnMrmZxWK/BFUXffMgwqHbrUtmNFYQqIxEJ5+7RqDe4VBdyqnNUR5KwnAUS7pzwqrZR5cNAua0ct6EzmyhdDDOsL/wmsE3OiP5uSuBLi3x2v+YS27f/n2/aQAFOvfdtUyY2DOLO6oiWhyxiIHRDKx3bPuyJTPGnxemqN+a5xPXx+xrLyetRSAwUtANhnAetFQq4Sl23bGwpWQap6yePekHlfDl9qXzp7zS3auPdhz7NTGnyI1iwI7rA1xcWWY+c8m6bT/L5x9PnupCvNSVkOOFKPxhoJBPdLqGh3OXXjNjwjI1lzqEYkOJrwKTtHNHhJCRyQJB/8kOqZJjvGlltTGrZh71UCo6D/nGCzq6slbbx+DgHcGlZaAElcSBP+wj8UkYxxjbtZ+WKvB8/aSz3WfqdZxluFUseh179pKZEy73aRu4ENiSpwapM9xxBhFymrRqzlEbVs+Y9J9paKK4S+ePfeXt4vCDEAwvYZM5CFNf8ygFXXrSyGBOufi2bU8O5BY295P7zzlLwk0wEnLZ0plHbWBYI+a+CbmDlCO5UwPKVFddx9eqs7csOKKnYNmf0B37FfGlMldfoQ7N59F/1GAVsR2tG0e2DGmtal3CfRPPWXo2YJic07Aq3tXQnRO96UfeEpVR67JMzzALe0WcLyubsEaQUWpXvg5rBidb/BA2nV5wn8J13R/TiIIEB70Ag6uJV6yCfWUMJwVAsIPReH+F6mLEMTLj+z+YeSi/7vHGe2iGOhFNoqMAIvfWCFEMakQrH6MV7XsI9LVZx3XjNbqx2FXcRQs1Ujp2eLrAWa+PsNo/uvb8Kc+mUw/XDbLjUSYxfvLsQLfGEW3H9BrG9qlTp+LSoYGSwm4BKLZGQBM73+sjVdM+szjY5lk1t+NvvYUcNpvsF+JXE/ANNi7Q9rJT6BmTX3DE62nlY60YTzauXOidCqTAYGQeS8tksmMOOOGCHy7c8DDd12uIRH2gFPQlKBHcHRE859PmDccB54RUD+mm8496s9UZOgbX8p2iC1CQL4nskrUjY3T/09rzT0o5Eng9o0iQ+GF4KOlGZrKhGxMRYHj8N5BFdikWMTIYxiTdaX0MlA2yXuBplQMg7FV3jYA26mC9J7qacPTCB+AcOBxLSGzsQO0XLcc+cuW8z3bujv60pSRc6jgvW63ZQ5fOGv/7JbMm/BLrk6mIE1qF+mcTyaEgzJiZMYvWbd9+0aafyu+T7Y4aNaNVrBEoIqJHzfSLCV577md2lszcWMzq3VgY7tDa2w66bsGn/xJDTAWAq9Flx7J7C7Y2ZuXZ455h8pVzOx7AHul4+L0gYHTG4KBdxlKhSMWJ2c7CgPZMWEatcq8r4nkPLxBkx7thwMoRcr2lG86Z+Foxp+2Pm08da6cdKebx3dRRx3MSzxqOsf+ac47+a5TXynOP+YWjW2dgdMCWqXvLXMYxc9mJC2/f/tjCVfW5ZqCPaQkP4w9dKpNP6WEfnlqpL6ERQSATFAWOFqrWY/qP2VPeuP4Lx/5pMHSDc1+xcvaYZQiwJH6rZnc8aFjaBOxWYGRgS7nzbrFAIGey9q7c95Loaw2nEYwcT7q7eVgjEQi+07l/LjqRhLH30hoelrmJno2o1L2V8zuewgl1CgwpRga65BRnlbAULsFymaMvvu2xhntOgvoQGhHIEOR8OQDkciVD/T20rz5n8sPYZ5yEI7hn7Z1AuHrBl2JKlzWKHUQQi1HCmxpc17t/RSd4ZOC8UXq2h/RcPe/TPzE183icMWKWIIPSQ7m2ZX/22vnHbdtDalQtRt5iZudTLqfwiNB0vGybsuWV8yY9jqXjcbiULZBRS/19k9ecN3lrWaJaNob9HtPEDQRFAASRE6NpAjwLrF1wzCO4cjnJ0Z0z1iyY8nijGoZ8HXuQIzpkiLGvUXu4B/S+7gvHPboHxLwjImRfi0CQASRRHkXk8juiTZPpHrGAWAFG1gWy4NCI0HS6bJq9rFzBue6IIPc5GjXRuozbLO8dFgitEZoO3zucmqYXns9psHCnhjJBUGFESSO2iVsrC9BGQitWCWX8HFojsJ6y8wf+2ghza+b1YAHZpyp9Kq8RmpGgstteAZMHiIpTw17R42Yn/C0Bdj6NEPRoFY8UyqlBthsjyrBmuQEtAEfS6wpyor0FTqFAILAcJbS4MAJcpmnmDWgB1+nJzoytEegeezhF6+HWZq0RLEBf02qNKyq51g2EmPPDNPlpo93n9cLgZq1BLJBtae0TDpQcL08L1I3Q1BDtF9HRCPHFmx66Fg/x4lMHZRIe3Rm05PGKsYwBykl0e52KRMkOHCQDKlGUwLDkcE1JIICMZ3gFrlOjXE7mEG/pta0h+MoMupHcET8QfJTI6EDrBNPMfinG3idwWxy898MP+JcTGOMjAzyeeLFeQJmfj1Lh3SLVhkn4gQufk6IArSN9cpGq5yAzgNVCMspxkeUyleMRBHSKx8lYQkzvqAfw+h59jCwpQYFgjSBrEyGgD1KIFBEYVINShLRilcWqnFiJeCA0UZ67zcPrQFoLcL9lfeI84hAfX9EUdb+PqypEFHBHhAhQ0EUEBdWgpOJfDsZiBmL8gdBEdYnyoFfd6SjhnUZ8OgdvPBdw4C2mpOR1IK0FuN/MVk2vhgoaRVMqpxOTiBJRlvLI486FhOFhcdEVyjWhWlV/SDYf0efoq2JAqoBB1IHV0hIe08s8xK/GafqrpWLxX52+3tYbzz9W7zJ3jcBr9VdB2luh9yu9Dgg+xK9K4dxvyjnFLcgQCSmK7DWRD+R/jJaYywp4SpSR5k7rF974sKSvQqlEaUGDxGBAjpMdFXBNV6qGh/iFGHyAw+5pOeSWxZ/GG9bh9MUbHtm3aPf/Gb8b0UaGrybJfWf8OGUcwrgqMdXKFjwUCpSRFoiVkMSI4Nbpr9TioycXSD4d8tlejTOYozjLwCANDdNSLtNXzcNxSkYxO1YVBMTz6xce+xJOj3H0PYbE5PWb+094ZDn5cGnjEBceR5bP9qqCgIVT7qUy0hhF+ItJfSAK3lVDwExulMssr2qDy8ReuVa0viroBP7//JnO3Ms+TFHYubP3mX1GDvkNmj7O/ZbR1NZSQwVdpKkqR4cERhigLQ6RCdyySnfG8uk9pGCNwBhSnvSenIRStjigM1biKNNL4HRF6igOwQuUtq6/sD3f4V0GqVltzk8tgmqHbEgyHB8BFUMojyRFEwVA1UHg6S1OYbCW2SmkCeEyiaw7a+bzkBG9xmAfweMePWtVDJmxnEfp5LZqyrtLL2R4yiYZysWxK372Jp//d32Hc4RvG1f/MlwjTVU7mw0TMXKEHWOF8ghJqI0qPo9KiB6lGBHkOT7GsQxAnGUQNFAn7i69OFuoo54O1HnfAEl668aBlb7H+PQhh2SwD3dg+DyUGLIgzoVc92yvOgg8vVVnvCQpVmSyWIPQwdOYkSivMkWiPplqoM6WOe4WD6lT1XdPxIisgoavxB/64j7d4wD8cahBqrS/1Haanske4NCegkJY1c5mnpLuBFKwZMxQHiELt3GtHBLjRHIViXKNwA4b6BmromdYRCd1lTT1Dl8HYJIByxlRImNyH59pLfpFGMvZNv/aB49TCZ9/3dZp+GTOPTZ9HofUUPxT0fkwtrKsv6c36+DjSgVBRvKkg5uZTtiCeKmQGDmSy6hcjqCIqrhIOv/rPwBvEjfwtLv0wgIQn1YLldpxHnGI+OxOqfR93dSXWcXCXw2z5UDsyOfx1ffxeKO5ekMoFIhLU7NTkArEEH0SkpqlD62KTEISU0NaJ6bF97XjgqdAqMPcViZnvSl6DfoSKlKcB0EII95C+DLYaGk7Qc9kTshh+UhnvmXhUzi4VDKNhN8RIwUirGUpdE8myTasu9BB+iPT88kgNVdVTOIdIi6DRH3nNQJOAbrfJb5+LEYJ0WOp024HQ2qH5FSseIqk5aDSHx++6rWLpRugrscu3Q1aFxt/6YZcmVsLok9lbtrJfYYmjm0402Gy/Qiu0pvxfRuUQ2LkhLwqUoHE7vRyCMfIx1yphsOwRSBYht6hl/QW3DltMXWtFa97t2l2aYieMYcCbxg+XDUCcTIckTLM1rVhYDkCDPBpHp1+fXoYduFGwClD8f3BLP2kL4WT++1Dt8sURBxIIpfqoMd/Vx+6eokmJcTRum+96MRLo7i1rs9ds3UsOioCgXXx9RdOYaibi3se3rknMgw3DBOfHXaB4vwUdbTjO04gxqkAfrhJhszphrk7kXcBpxum7MQVD34Rx6BfxaE3GvC1OeA4VLY6Ae/B9156M6bWW7KMPl23wETvF4FwywXH/ySs4u7VLlqzqa176KihWn9fu14qjsRY246dnHbD0PeBwu3oTzt8PlJ3nJEYh0YgANrRiXchhoZrjo5x2THQCQPKI/ZopMLTDvR9XUfcpadb9v3gA5vpznk3f3eI3eNchvBLMbHL/fPHBxmoLAsfQBtOpAMMbzqd7desz3f06fg+I/rQAx+xt5Dj65U6vr4E7yEocB65bfimUR9gu3TT2UXOww8h74Kb3wLyLvR7l2M6b+LhlE7L0d6ydGtX1s4hL+5qG5HtumXByT2sw2DlPDUMFj/BZ+2Xp9GXzuio+F0ileB83jGe19bnhoz6QMbRu7OOnstqvYUsfJ3tw+IAX1w2KAiIdt+XT+p7sf27JyPYDlXxCsGC09MH8wMkcFBi4pOZfq9DTjTq4Wtsv0IQXEFw27Tn23YulzH6So5tFvENjeLQIZlisau/pPW1Fd/ESbg5P60uH/sr13+5z3Vdnr/mO1/CBsG1+HpJXE/2otTix4MEixYVZD4K09OzDFZ/36R1i05/wm9s0II00DVoD6C2PvT9N2LawCgcPjB00+ojdkR7GiETbBjHpyde3sFycNm5w+nZ9XPGbeR8rwgE/LYDXfddKV9SkgPLJdn5UTzZ+ez0KI5b13+0Pj83+LqaGqkhoHtFIJClezKd1+ORs7dVASA7ncvsHdnp0TOecVS5+EUXzbkDbSqRKpK6hu01gXDnhdM78ajuI5gohMHZ4ZTLyXc8gOT48me8TBmU6WKBgm7dwlMfDqCNXdprAoGuIizbvJamB3Z+1OkhxzNSBf/JscJl+nljXMt+tQJpQzXvNYFAVr9j0WefLPYXfkc7WgNxOnuOHZ4UK9hK7u/VMjQt7DVprwoE8oplavNo76naJDudyzFabuDctn87fPhLsQdfY3QNBKjeYg3SKfPtnb93rNL/RtUlH1JiX3LuQr2/VSDRtIAPbG65ZcGCSncpQqzrvdI4gYAV2qzV9x80d/UDG89ZvdU5Z9W38yrj4nKuz3b0e+lne9nZsn9VND4iNTKyh0g7EfI/3cQe8svWDUo+EnBq/ukcmLkrVwler8W6V3Tu9ZtGOf3ZCzDvn5nJ5kbTbWK63St29UqlbZbRP2vDl6ftkA1MPwDa2V/EXr43DHBjxMkMppycnZS4xcCWMj68vWnDpaeflYRL8FkrNl+JNxX/DcZ9EndN7vzWJWfeWg6/HtrqNhDOu/nmbOnt9y7Gj2h9lQwlFn8qi4mTTj913SWnfEdunrvyO1fj/sMVDn5VPnqWB3jJ7mfnB7h0ExC3thzn8PWLTqNH3WNpzsrv/QN+DWgbfqv6YPHSKZiIe2W23WXp9oziAc6Dm6dNoxtQdZfqcmqYu+r+ucXO9z1n5Fq+SgHgHq4/6aR2T2xdM3NtNF//FG/sv0fL50N9KTilm7FWwG1Z16Xy8B6UXX8QRvSIeYr0sK0Xiz3dz0bbZi29/90zlt1/h2X3/Z+umwfT7zbwACPufxj6sKyZe6D1OfMX01duGR+lr4d6XY0INKR3Ffo2ZLJt00rFfvahwk64ies4z+B1/em3X3zybxUIFC367FXffhTn5Fj3zm8Yyw2PMCxWE0guJn6j2sDaY8vGxafPjOEBMGPZfWfgxvlqBMD+qnaWRyOEZdtz7/rKGetVeLWC1U0gwLH6nNVbf477y5+idYAqkRHx+1q7DN08HVPBNhWODJu3ZtM+Bau1XdPo1n/KFCGxMqau9/e+vjE/4+0kTlPzm3ItLfpUrA/WYysjuMXvjUpMZ5gZreQUv3nXpVPnM6zWeV0EQh7D+nNthz2IS7PjY7eSPSNi5xAntvNf+y/67RF5Pa+OlFpb05M/ffkDH9Pt4o/xvEI7TWuqZBgZ+tmff974lTO/oWrf07DQvLqnhbO859sOP0YEAS/syHh8EBKCAL/7vGNYW8u4eg8CUnfj4lP/27aHHIYgUG46UWjQk9J4kvqms5bffxjR1DrVRSBgGYbnCeInub+oE0979U254V9OaJhbvnddceILuq19nYKYEjnfPxDkNFLQlYVhl8TTTQKphn9qHghYII7I5LIfxhkPQ4X/kV2E8XTtj1pX//M1tNPARNuljfiNafFBMnI8HwEz+i6S8ZE5+XWKb98FWHuiVPNA6CoWsJiLJz57qAU27OnWhsaHjDhZXUFK1tDXvLviIb1ojOAD/cy9oRVq7oeaK7Du4lP/WsJ8yY7nXLYcjLYf6tiybayUae0Zh8sc3+mS80V/6dOFuAra2akdVPMHWmseCORabMB8gy6pYgmGouEAbaNyreb5sfY6B9i28SXx9hP0pOGMgpycz1ME9RlLiK2VvtewJ7pZF4HQ11u63C4V3yCns5FETsaD9Sy8kGoaxopZKzaduSeMMhgyPn/N3VfjsuAYdjz3zedNV0JW6ZW7Lz9rmQ+rYaEuAgHP+u/Ej+l+QTfxbgunyBxBm0yOY949Y8V9X2SUesynTt1kfm7Jvd8wsq1XYNhPVBH3LDoztkav59dFommrbtKMZZsn4ZW5RzGpKuYJV02KD4yvvza07mM3XDb7jbpRHoqcdc09Y3Fm/VDT8aqgmAji2rnxrePFJuuQey87O/bcRJxiz0DqKhCoy9OXbfmUoWu34tnDw2Ifv6R5Aoleaad9B7wHeB9ei7594+LTfiAaavBnUj6f+cfcR6dDoTl4BmKS+6lbV0/3b6BUNteqFfp7H87qhbl3Xj7z5aCl9qW6CwQ2yczlm1fYmrEQQ2jZ6Uu8bGvb3VhTrIWVby5ouVdHa38oYdv6HbncpKFfG62ZrVn7oKJmXIwb03Noxcdb4yHne4FLfcJNK7ycqs2/54pp93If6ymv20AgI519zQP7mRl7ruZYl2SyLcNo0SgPubLRaQUuFphW6S+A/w/eNv29buu/BsHvSkX7jwN95/CUFbcNH1YcfrCm2x8Hr0/iFfKPYLVyMD7ZO4o2wfyPXUtOBx5iA/NbS5tW7O15EQ9YLyuVuu7ZnD93J7XVY6rrQJANNnP5fRdgvbgQ64f3wcptuBGNZjkUZGzXEfREEZ4PwFRiaKUCbic6+jOW4TyvW9bfML28AX7BvQDdzuAt5OG4wTkKc86++AzfAaaZ+aAIMCDS6+hiwcoyI44X0uF8ujpAwhvR+nNYzCy+98qzHwxrVp+1hgkEz3z6WVff8xFcSo5BfRrm5OONXA77ENiQEp+hDweGX4Nz8BK92NihYRxh4mYuRPIMXb5SFX9QoEs/kTh3a/5fOut1jET02Fyxv7cf0bLFNvXNRsH+zT35zz3vIzZAodECIWbSzy/fMhFRcDpG6Q48yzAKrsOKXRz0TQXhU/rj+tdzbIxLAIhiuAbCX2JFAeHY+Bin3g1ZXRgldmB18JDuZDfffdWZTwdcGq/k9rPx9FZqTPN5S+/wka3ZzIiCXdjXNI0PwXUfRhTsDye+H0TvQ2zsg7kCX4DBQ27MRTrj8QgkHi8Ut49xaWr8DePCDvzA2fOOqf8JZ/yzlmm+im3CXdoQbedm9zsQzKWh8/8Hr5LfqE7nhnMAAAAASUVORK5CYII=;" vertex="1" parent="1">
          <mxGeometry x="575" y="440" width="41.94" height="40" as="geometry" />
        </mxCell>
        <mxCell id="u0ZUq6SkKT7h-yAJdBjN-17" value="Switch A" style="text;html=1;strokeColor=none;fillColor=none;align=center;verticalAlign=middle;whiteSpace=wrap;rounded=0;fontStyle=1" vertex="1" parent="1">
          <mxGeometry x="310" y="300" width="60" height="30" as="geometry" />
        </mxCell>
        <mxCell id="u0ZUq6SkKT7h-yAJdBjN-18" value="Switch B" style="text;html=1;strokeColor=none;fillColor=none;align=center;verticalAlign=middle;whiteSpace=wrap;rounded=0;fontStyle=1" vertex="1" parent="1">
          <mxGeometry x="565.97" y="300" width="60" height="30" as="geometry" />
        </mxCell>
        <mxCell id="u0ZUq6SkKT7h-yAJdBjN-19" value="VLAN 20" style="text;html=1;strokeColor=none;fillColor=none;align=center;verticalAlign=middle;whiteSpace=wrap;rounded=0;" vertex="1" parent="1">
          <mxGeometry x="240" y="490" width="60" height="30" as="geometry" />
        </mxCell>
        <mxCell id="u0ZUq6SkKT7h-yAJdBjN-20" value="VLAN 20" style="text;html=1;strokeColor=none;fillColor=none;align=center;verticalAlign=middle;whiteSpace=wrap;rounded=0;" vertex="1" parent="1">
          <mxGeometry x="503.49" y="490" width="60" height="30" as="geometry" />
        </mxCell>
        <mxCell id="u0ZUq6SkKT7h-yAJdBjN-21" value="VLAN 30" style="text;html=1;strokeColor=none;fillColor=none;align=center;verticalAlign=middle;whiteSpace=wrap;rounded=0;" vertex="1" parent="1">
          <mxGeometry x="371.25" y="490" width="60" height="30" as="geometry" />
        </mxCell>
        <mxCell id="u0ZUq6SkKT7h-yAJdBjN-22" value="VLAN 30" style="text;html=1;strokeColor=none;fillColor=none;align=center;verticalAlign=middle;whiteSpace=wrap;rounded=0;" vertex="1" parent="1">
          <mxGeometry x="565.97" y="490" width="60" height="30" as="geometry" />
        </mxCell>
        <mxCell id="u0ZUq6SkKT7h-yAJdBjN-35" value="MGMT VLAN 100" style="text;html=1;strokeColor=none;fillColor=none;align=center;verticalAlign=middle;whiteSpace=wrap;rounded=0;" vertex="1" parent="1">
          <mxGeometry x="210" y="300" width="100" height="30" as="geometry" />
        </mxCell>
        <mxCell id="u0ZUq6SkKT7h-yAJdBjN-36" value="Primary VLAN 10" style="text;html=1;strokeColor=none;fillColor=none;align=center;verticalAlign=middle;whiteSpace=wrap;rounded=0;" vertex="1" parent="1">
          <mxGeometry x="300" y="250" width="100" height="30" as="geometry" />
        </mxCell>
        <mxCell id="u0ZUq6SkKT7h-yAJdBjN-37" value="TRUNK" style="text;html=1;strokeColor=none;fillColor=none;align=center;verticalAlign=middle;whiteSpace=wrap;rounded=0;" vertex="1" parent="1">
          <mxGeometry x="444.95" y="310" width="56.11" height="30" as="geometry" />
        </mxCell>
        <mxCell id="u0ZUq6SkKT7h-yAJdBjN-38" value="Primary VLAN 10&lt;br&gt;Community VLAN 20&lt;br&gt;Isolated VLAN 30&lt;br&gt;MGMT VLAN 100" style="text;html=1;strokeColor=none;fillColor=none;align=left;verticalAlign=middle;whiteSpace=wrap;rounded=0;" vertex="1" parent="1">
          <mxGeometry x="470.97" y="170" width="155" height="70" as="geometry" />
        </mxCell>
      </root>
    </mxGraphModel>
  </diagram>
</mxfile>
